<svg width="297" height="257" fill="none" xmlns="http://www.w3.org/2000/svg"><path d="M295.063 84.543H2.367V70.656A2.958 2.958 0 0 1 5.325 67.7h286.78a2.958 2.958 0 0 1 2.958 2.957v13.887Z" fill="#E1E7F3"/><path d="M21.521 78.423a2.303 2.303 0 1 0 .001-4.606 2.303 2.303 0 0 0 0 4.606ZM30.266 78.423a2.303 2.303 0 1 0 0-4.606 2.303 2.303 0 0 0 0 4.606ZM39.01 78.423a2.303 2.303 0 1 0 0-4.606 2.303 2.303 0 0 0 0 4.606Z" fill="#fff"/><path d="M292.105 67.698a2.958 2.958 0 0 1 2.958 2.958V252.22a2.958 2.958 0 0 1-2.958 2.957H5.325a2.958 2.958 0 0 1-2.958-2.957V70.656a2.958 2.958 0 0 1 2.958-2.958h286.78Zm0-1.479H5.325a4.442 4.442 0 0 0-4.437 4.437V252.22a4.442 4.442 0 0 0 4.437 4.436h286.78a4.442 4.442 0 0 0 4.438-4.436V70.656a4.443 4.443 0 0 0-4.438-4.437Z" fill="#696872"/><path d="M283.509 246.623H13.921a2.959 2.959 0 0 1-2.958-2.958V97.753a2.958 2.958 0 0 1 2.958-2.958H283.51a2.959 2.959 0 0 1 2.959 2.957v145.913a2.96 2.96 0 0 1-2.959 2.958Z" fill="#fff"/><path d="M95.926 164.389H30.772a2.958 2.958 0 0 1-2.959-2.957v-46.835a2.958 2.958 0 0 1 2.959-2.957h65.154a2.958 2.958 0 0 1 2.959 2.957v46.835a2.958 2.958 0 0 1-2.959 2.957Z" fill="#E1E7F3"/><path d="M266.659 164.389h-65.154a2.958 2.958 0 0 1-2.959-2.957v-46.835a2.958 2.958 0 0 1 2.959-2.957h65.154a2.958 2.958 0 0 1 2.959 2.957v46.835a2.958 2.958 0 0 1-2.959 2.957Z" stroke="#696872" stroke-width="2.5" stroke-miterlimit="10"/><path d="M97.563 193.437h-68.16a1.59 1.59 0 1 1 0-3.18h68.16a1.59 1.59 0 1 1 0 3.18ZM97.563 184.352h-68.16a1.59 1.59 0 1 1 0-3.18h68.16a1.59 1.59 0 1 1 0 3.18Z" fill="#E1E7F3"/><path d="M64.824 202.523H28.657c-.466 0-.844-.712-.844-1.59 0-.879.378-1.59.844-1.59h36.167c.466 0 .844.711.844 1.59 0 .878-.378 1.59-.844 1.59ZM86.562 211.608h-57.41c-.739 0-1.339-.712-1.339-1.59 0-.878.6-1.59 1.34-1.59h57.41c.739 0 1.339.711 1.339 1.59 0 .878-.6 1.59-1.34 1.59Z" fill="#ADA3F1"/><path d="M97.563 220.693h-68.16a1.59 1.59 0 1 1 0-3.18h68.16a1.59 1.59 0 1 1 0 3.18ZM87.01 229.777H29.163c-.746 0-1.35-.711-1.35-1.59 0-.878.604-1.59 1.35-1.59H87.01c.745 0 1.35.712 1.35 1.59 0 .879-.605 1.59-1.35 1.59ZM176.888 202.523h-56.345a1.59 1.59 0 1 1 0-3.18h56.345a1.59 1.59 0 1 1 0 3.18Z" fill="#E1E7F3"/><path d="M176.888 211.608h-56.345a1.59 1.59 0 1 1 0-3.18h56.345a1.59 1.59 0 1 1 0 3.18Z" fill="#ADA3F1"/><path d="M169.501 220.693h-49.162c-.766 0-1.388-.712-1.388-1.59 0-.878.622-1.59 1.388-1.59h49.162c.766 0 1.387.711 1.387 1.59 0 .878-.621 1.59-1.387 1.59ZM176.888 229.777h-56.345a1.59 1.59 0 1 1 0-3.18h56.345a1.591 1.591 0 0 1 0 3.18Z" fill="#E1E7F3"/><path d="M266.659 229.778h-64.961a2.958 2.958 0 0 1-2.958-2.958v-46.835a2.957 2.957 0 0 1 2.958-2.957h64.961a2.958 2.958 0 0 1 2.959 2.957v46.835a2.958 2.958 0 0 1-2.959 2.958ZM175.289 144.958h-53.148a2.958 2.958 0 0 1-2.959-2.958v-27.403a2.958 2.958 0 0 1 2.959-2.957h53.148a2.958 2.958 0 0 1 2.958 2.957V142a2.958 2.958 0 0 1-2.958 2.958Z" fill="#ADA3F1"/><path d="M175.289 189.129h-53.148a2.958 2.958 0 0 1-2.959-2.958v-27.403a2.958 2.958 0 0 1 2.959-2.957h53.148a2.958 2.958 0 0 1 2.958 2.957v27.403a2.958 2.958 0 0 1-2.958 2.958Z" fill="#E1E7F3"/><path d="m169.811 44.69-20.293 80.221a.74.74 0 0 1-.898.536l-.608-.154a.739.739 0 0 1-.535-.898l20.292-80.22a.74.74 0 0 1 .898-.536l.608.154a.74.74 0 0 1 .536.898Z" fill="#696872"/><path d="M173.959 44.95c12.042 0 21.803-9.759 21.803-21.796 0-12.038-9.761-21.796-21.803-21.796-12.041 0-21.803 9.758-21.803 21.796 0 12.037 9.762 21.795 21.803 21.795Z" fill="#E1E7F3"/><path d="M173.96 2.097c11.632 0 21.063 9.427 21.063 21.057 0 11.629-9.43 21.056-21.063 21.056s-21.064-9.427-21.064-21.056c0-11.63 9.431-21.057 21.064-21.057Zm0-1.478c-12.43 0-22.543 10.109-22.543 22.535s10.113 22.535 22.543 22.535 22.542-10.11 22.542-22.535c0-12.426-10.113-22.535-22.542-22.535Z" fill="#696872"/><path d="M183.956 18.755h-19.993c-.753 0-1.364-.471-1.364-1.053 0-.581.61-1.053 1.364-1.053h19.993c.753 0 1.364.472 1.364 1.053 0 .582-.611 1.053-1.364 1.053ZM183.956 24.206h-19.993c-.753 0-1.364-.471-1.364-1.052 0-.582.61-1.053 1.364-1.053h19.993c.753 0 1.364.471 1.364 1.053 0 .581-.611 1.052-1.364 1.052ZM183.956 29.658h-19.993c-.753 0-1.364-.472-1.364-1.053 0-.582.61-1.053 1.364-1.053h19.993c.753 0 1.364.471 1.364 1.053 0 .581-.611 1.053-1.364 1.053Z" fill="#696872"/></svg>