<svg width="962" height="671" fill="none" xmlns="http://www.w3.org/2000/svg"><g clip-path="url(#a)"><path d="M720.129 565.12c-2.914 0-5.342-2.43-5.342-5.346V8.841c0-2.916 2.428-5.346 5.342-5.346h234.1c2.914 0 5.343 2.43 5.343 5.346v550.933c0 2.916-2.429 5.346-5.343 5.346h-234.1Z" fill="#fff"/><path d="M954.229 3.981c2.72 0 4.857 2.139 4.857 4.86v550.933c0 2.721-2.137 4.86-4.857 4.86h-234.1c-2.719 0-4.856-2.139-4.856-4.86V8.841c0-2.721 2.137-4.86 4.856-4.86h234.1Zm0-.972h-234.1c-3.205 0-5.828 2.625-5.828 5.832v550.933c0 3.207 2.623 5.832 5.828 5.832h234.1c3.206 0 5.828-2.625 5.828-5.832V8.841c0-3.207-2.622-5.832-5.828-5.832Z" fill="#696872"/><path d="M959.086 35.086H715.273V8.84c0-2.721 2.137-4.86 4.856-4.86h234.1c2.72 0 4.857 2.139 4.857 4.86v26.245Z" fill="#E1E7F3"/><path d="M741.402 24.393a4.858 4.858 0 0 0 4.857-4.86 4.858 4.858 0 0 0-4.857-4.86 4.858 4.858 0 0 0-4.856 4.86 4.858 4.858 0 0 0 4.856 4.86ZM759.955 24.393a4.858 4.858 0 0 0 4.857-4.86 4.858 4.858 0 0 0-4.857-4.86 4.858 4.858 0 0 0-4.856 4.86 4.858 4.858 0 0 0 4.856 4.86ZM778.606 24.393a4.859 4.859 0 0 0 4.857-4.86 4.858 4.858 0 1 0-9.714 0 4.858 4.858 0 0 0 4.857 4.86ZM936.065 12.34H914.5c-.874 0-1.457.487-1.457 1.264 0 .68.68 1.167 1.457 1.167h21.565c.874 0 1.651-.486 1.651-1.167 0-.68-.68-1.263-1.651-1.263ZM936.065 18.367H914.5c-.874 0-1.457.486-1.457 1.264 0 .68.68 1.166 1.457 1.166h21.565c.874 0 1.651-.486 1.651-1.166 0-.778-.68-1.264-1.651-1.264ZM936.065 24.393H914.5c-.874 0-1.457.486-1.457 1.264 0 .68.68 1.166 1.457 1.166h21.565c.874 0 1.651-.486 1.651-1.166 0-.778-.68-1.264-1.651-1.264Z" fill="#fff"/><path d="M783.463 309.677c5.74 0 10.393-4.657 10.393-10.401s-4.653-10.4-10.393-10.4c-5.741 0-10.394 4.656-10.394 10.4 0 5.744 4.653 10.401 10.394 10.401ZM807.553 292.57c-.972 0-1.652.874-1.652 1.652 0 .972.874 1.652 1.652 1.652h81.789c.971 0 1.651-.874 1.651-1.652 0-.972-.874-1.652-1.651-1.652h-81.789ZM807.553 303.067c-.972 0-1.652.875-1.652 1.653 0 .972.874 1.652 1.652 1.652h35.163c.971 0 1.651-.875 1.651-1.652 0-.972-.874-1.653-1.651-1.653h-35.163ZM818.043 258.841c5.74 0 10.394-4.656 10.394-10.4 0-5.744-4.654-10.401-10.394-10.401s-10.393 4.657-10.393 10.401 4.653 10.4 10.393 10.4ZM842.036 241.831c-.971 0-1.651.875-1.651 1.652 0 .972.874 1.653 1.651 1.653h81.789c.972 0 1.652-.875 1.652-1.653 0-.972-.875-1.652-1.652-1.652h-81.789ZM842.036 252.329c-.971 0-1.651.874-1.651 1.652 0 .972.874 1.652 1.651 1.652H877.2c.971 0 1.651-.874 1.651-1.652 0-.972-.874-1.652-1.651-1.652h-35.164Z" fill="#E1E7F3"/><path d="M791.136 91.365c5.741 0 10.394-4.657 10.394-10.4 0-5.745-4.653-10.401-10.394-10.401-5.74 0-10.393 4.656-10.393 10.4 0 5.744 4.653 10.4 10.393 10.4Z" fill="#ADA3F1"/><path d="M905.466 183.511H772.195c-2.72 0-4.857-2.139-4.857-4.86V65.121c0-2.722 2.137-4.86 4.857-4.86h133.271c2.72 0 4.857 2.138 4.857 4.86v113.53c0 2.721-2.234 4.86-4.857 4.86Z" stroke="#696872" stroke-miterlimit="10"/><path d="M815.226 74.16c-.971 0-1.651.875-1.651 1.653 0 .971.874 1.652 1.651 1.652h81.692c.972 0 1.652-.875 1.652-1.653 0-.971-.875-1.652-1.652-1.652h-81.692ZM815.226 84.463c-.971 0-1.651.875-1.651 1.653 0 .972.874 1.652 1.651 1.652h35.164c.971 0 1.651-.875 1.651-1.652 0-.972-.874-1.653-1.651-1.653h-35.164Z" fill="#CCC"/><path d="M940.533 168.153H802.501c-1.36 0-2.525-1.166-2.525-2.527v-60.653c0-1.361 1.165-2.528 2.525-2.528h138.032c1.36 0 2.525 1.167 2.525 2.528v60.653c0 1.361-1.165 2.527-2.525 2.527Z" fill="#ADA3F1"/><path d="M830.574 123.538c-.971 0-1.651.875-1.651 1.652 0 .972.874 1.653 1.651 1.653h81.789c.972 0 1.651-.875 1.651-1.653 0-.972-.874-1.652-1.651-1.652h-81.789ZM830.574 133.55c-.971 0-1.651.874-1.651 1.652 0 .972.874 1.652 1.651 1.652h81.789c.972 0 1.651-.874 1.651-1.652 0-.972-.874-1.652-1.651-1.652h-81.789ZM830.574 143.658c-.971 0-1.651.875-1.651 1.653 0 .972.874 1.652 1.651 1.652h35.163c.972 0 1.652-.875 1.652-1.652 0-.972-.874-1.653-1.652-1.653h-35.163Z" fill="#fff"/><path d="M928.488 495.33c9.131-6.221 15.833-17.205 14.376-28.188-8.354 8.845-19.33 14.385-31.375 15.843-4.663.486-9.811.681-13.016 3.986-2.04 2.041-2.817 5.151-2.817 7.97s.68 5.638 1.457 8.554l-.195.68c10.88-.583 22.245-2.527 31.57-8.845Z" fill="#E1E7F3"/><path d="M942.476 467.044c-3.303 8.554-9.326 15.844-17.194 20.899-1.651 1.166-3.497 2.041-5.342 2.527-1.846.486-3.886.291-5.634-.195-1.651-.486-3.497-1.166-5.343-1.166-1.845 0-3.691.875-5.051 2.138-1.651 1.653-2.525 3.888-3.302 6.027-.875 2.333-1.846 4.86-3.692 6.707-.194.194.195.486.292.291 3.302-3.013 3.691-7.97 6.217-11.567 1.165-1.652 3.011-3.013 5.051-3.013 1.845 0 3.691.681 5.342 1.167 1.846.486 3.691.68 5.537.291 2.04-.486 3.885-1.166 5.537-2.138 3.885-2.333 7.188-5.152 10.199-8.554 3.303-3.888 6.023-8.165 7.868-13.025.195-.486-.291-.486-.485-.389Z" fill="#fff"/><path d="M928.002 486.484c2.04 2.528 5.634 3.014 8.354 1.361.291-.194 0-.68-.194-.486-2.526 1.458-5.829.972-7.868-1.361-.098-.097-.486.292-.292.486ZM915.277 490.567a12.404 12.404 0 0 1 3.983-8.359c.194-.195-.194-.486-.292-.292-2.331 2.333-3.885 5.346-4.176 8.651 0 .389.485.389.485 0ZM937.813 476.279c-.971-.875-1.457-2.042-1.457-3.208 0-.292-.486-.292-.486 0-.194 1.361.486 2.624 1.457 3.499.195.195.195.195.292 0 .388-.194.388-.291.194-.291Z" fill="#fff"/><path d="M910.809 447.41v.68c-.292 2.625-.874 5.152-1.457 7.874 0 .194-.194.291-.194.68-1.846 6.221-4.663 11.858-8.646 16.913-1.457 2.041-3.302 3.888-5.148 5.637-2.525 2.333-5.537 4.86-6.994 7.874-.194.291-.291.68-.485.972l8.159 16.232.194.195.292.68.291-.292.194-.194.195-.194.194-.195c.486-.486 1.166-.972 1.651-1.458 4.372-3.888 8.548-8.165 11.657-12.83.194-.195.194-.292.291-.486 1.457-2.139 2.817-4.374 3.886-6.804.68-1.361 1.165-2.625 1.651-3.986a41.434 41.434 0 0 0 2.04-10.886c.194-7.387-2.04-14.677-6.994-19.829-.583-.486-.583-.486-.777-.583Z" fill="#E1E7F3"/><path d="M910.615 447.507c2.525 8.845 2.04 18.371-1.166 26.925-.68 1.846-1.651 3.693-2.817 5.151-1.166 1.458-2.817 2.625-4.663 3.305-1.651.681-3.496 1.167-5.051 2.139-1.457 1.166-2.525 2.818-2.622 4.665-.292 2.333.291 4.471.874 6.804.68 2.527 1.457 5.055.971 7.485 0 .291.486.291.486 0 .874-4.472-1.846-8.554-2.04-13.025 0-2.041.486-4.18 2.137-5.541 1.457-1.166 3.303-1.652 5.051-2.332 1.846-.681 3.303-1.653 4.663-3.014 1.36-1.458 2.331-3.207 3.011-5.054 1.651-4.18 2.623-8.554 3.011-13.025.292-5.054-.194-10.206-1.457-15.066 0 .097-.486.292-.388.583Z" fill="#fff"/><path d="M910.615 471.71c3.205.68 6.314-.972 7.479-3.985.194-.292-.291-.486-.486-.195-1.165 2.819-4.176 4.374-6.993 3.694-.098-.194-.292.389 0 .486ZM902.941 482.791c-1.651-2.624-2.331-5.832-1.846-9.04 0-.291-.485-.291-.485 0-.486 3.305.194 6.707 2.039 9.332 0 .194.486-.195.292-.292ZM912.266 457.519c-1.166 0-2.331-.681-3.011-1.653-.195-.291-.486 0-.292.292.68 1.166 2.04 1.847 3.303 1.847.194 0 .291 0 .291-.195-.097-.097-.097-.291-.291-.291Z" fill="#fff"/><path d="M886.233 353.028h-7.965c1.166 3.014-.194 6.513-3.303 7.679-.68.292-1.457.486-2.137.486h-35.163a5.992 5.992 0 0 1-6.023-6.026c0-.875.195-1.458.486-2.139h-7.479c-6.8 0-12.531 5.638-12.531 12.539v158.826c0 6.804 5.634 12.539 12.531 12.539h61.779c6.799 0 12.53-5.638 12.53-12.539V365.567c-.194-6.998-5.828-12.539-12.725-12.539Z" fill="#fff" stroke="#696872" stroke-miterlimit="10"/><path d="M886.816 377.426h-18.553c-.486 0-.874-.292-.874-.875s.291-.875.874-.875h18.553c.486 0 .874.292.874.875-.194.486-.582.875-.874.875Z" fill="#ADA3F1"/><path d="M828.825 488.915H762.87c-1.846 0-3.4-1.556-3.4-3.402v-15.261c0-1.847 1.554-3.402 3.4-3.402h65.955c1.846 0 3.4 1.555 3.4 3.402v15.261a3.38 3.38 0 0 1-3.4 3.402Z" fill="#fff" stroke="#696872" stroke-miterlimit="10"/><path d="M886.816 380.925h-18.553c-.486 0-.874-.292-.874-.875s.291-.875.874-.875h18.553c.486 0 .874.292.874.875-.194.486-.582.875-.874.875ZM886.816 384.424h-18.553c-.486 0-.874-.292-.874-.875s.291-.875.874-.875h18.553c.486 0 .874.292.874.875-.194.486-.582.875-.874.875ZM817.655 474.723h-43.712c-.486 0-.971-.291-.971-.972 0-.486.291-.972.971-.972h43.712c.485 0 .971.292.971.972.097.486-.388.972-.971.972ZM817.655 478.903h-43.712c-.486 0-.971-.292-.971-.972 0-.486.291-.972.971-.972h43.712c.485 0 .971.292.971.972.097.486-.388.972-.971.972ZM799.976 483.083h-26.033c-.486 0-.971-.292-.971-.972 0-.486.291-.972.971-.972h26.033c.486 0 .971.291.971.972.097.68-.485.972-.971.972Z" fill="#ADA3F1"/><path d="M932.373 526.531h-99.176c-2.817 0-5.149-1.749-5.149-3.888v-17.399c0-2.138 2.332-3.888 5.149-3.888h99.273c2.817 0 5.149 1.75 5.149 3.888v17.399c-.097 2.139-2.429 3.888-5.246 3.888Z" fill="#fff" stroke="#696872" stroke-miterlimit="10"/><path d="M897.793 319.105H764.521c-2.72 0-4.857-2.138-4.857-4.86v-29.549c0-2.721 2.137-4.86 4.857-4.86h133.272c2.719 0 4.856 2.139 4.856 4.86v29.549c0 2.722-2.234 4.86-4.856 4.86Z" stroke="#696872" stroke-miterlimit="10"/><path d="M843.882 509.618c-.68 0-.972.486-.972.972 0 .681.486.972.972.972h77.806c.68 0 .972-.486.972-.972 0-.68-.486-.972-.972-.972h-77.806ZM843.882 516.131c-.68 0-.972.486-.972.972s.486.972.972.972h49.248c.68 0 .971-.486.971-.972s-.485-.972-.971-.972h-49.248Z" fill="#ADA3F1"/><path d="M765.104 454.02a4.459 4.459 0 0 1-4.469-4.472c0-2.43 2.04-4.471 4.469-4.471 2.428 0 4.468 2.041 4.468 4.471a4.459 4.459 0 0 1-4.468 4.472Z" fill="#F0F0F0"/><path d="M785.988 389.284c-2.817 0-5.051-2.333-5.051-5.054 0-2.722 2.331-5.055 5.051-5.055 2.817 0 5.051 2.333 5.051 5.055 0 2.721-2.428 5.054-5.051 5.054ZM915.957 425.345c-2.331 0-4.371-2.041-4.371-4.374 0-2.332 2.04-4.374 4.371-4.374 2.331 0 4.371 2.042 4.371 4.374 0 2.528-2.04 4.374-4.371 4.374ZM888.467 398.324h-65.275l65.275 49.086v-49.086Z" fill="#E1E7F3"/><path d="M888.467 397.74h-66.441v50.253h66.441V397.74Z" stroke="#696872" stroke-miterlimit="10"/><path d="M925.185 537.029c-5.342 0-9.811-4.374-9.811-9.817 0-5.346 4.372-9.818 9.811-9.818a9.787 9.787 0 0 1 9.811 9.818c0 5.443-4.468 9.817-9.811 9.817Z" fill="#ADA3F1"/><path d="M754.322 214.42h-21.371c-.874 0-1.651-.68-1.651-1.652 0-.972.68-1.652 1.651-1.652h21.371c.874 0 1.457.68 1.457 1.652.194.972-.486 1.652-1.457 1.652ZM754.322 220.447h-21.371a1.638 1.638 0 0 1-1.651-1.653c0-.972.68-1.652 1.651-1.652h21.371c.874 0 1.651.68 1.651 1.652 0 .972-.68 1.653-1.651 1.653ZM754.322 226.473h-21.371c-.874 0-1.651-.68-1.651-1.652 0-.972.68-1.653 1.651-1.653h21.371c.874 0 1.457.681 1.457 1.653.194.972-.486 1.652-1.457 1.652ZM741.014 194.98h-21.565c-.874 0-1.457.486-1.457 1.264 0 .68.68 1.166 1.457 1.166h21.565c.874 0 1.651-.486 1.651-1.166.097-.583-.583-1.264-1.651-1.264ZM741.014 201.007h-21.565c-.874 0-1.457.486-1.457 1.263 0 .681.68 1.167 1.457 1.167h21.565c.874 0 1.651-.486 1.651-1.167.097-.777-.583-1.263-1.651-1.263ZM741.014 207.033h-21.565c-.874 0-1.457.486-1.457 1.264 0 .68.68 1.166 1.457 1.166h21.565c.874 0 1.651-.486 1.651-1.166.097-.778-.583-1.264-1.651-1.264ZM930.139 526.823h-4.565v-5.152a.42.42 0 0 0-.389-.389c-.194 0-.388.195-.388.389v5.152h-4.566a.417.417 0 0 0-.388.388c0 .195.194.389.388.389h4.566v5.152c0 .194.194.389.388.389a.42.42 0 0 0 .389-.389V527.6h4.565a.418.418 0 0 0 .389-.389c0-.291-.292-.388-.389-.388Z" fill="#fff"/><path d="M932.179 268.367H798.81c-2.72 0-4.857-2.139-4.857-4.86v-29.549c0-2.722 2.137-4.86 4.857-4.86h133.272c2.72 0 4.857 2.138 4.857 4.86v29.549c.097 2.624-2.04 4.86-4.76 4.86Z" stroke="#696872" stroke-miterlimit="10"/></g><g clip-path="url(#b)"><path d="M747.76 157.282h-21.222a1.626 1.626 0 0 1-1.639-1.642c0-.965.675-1.641 1.639-1.641h21.222c.869 0 1.447.676 1.447 1.641.193.966-.482 1.642-1.447 1.642ZM747.76 163.267h-21.222a1.626 1.626 0 0 1-1.639-1.641c0-.966.675-1.641 1.639-1.641h21.222c.869 0 1.64.675 1.64 1.641 0 .965-.675 1.641-1.64 1.641ZM747.76 169.252h-21.222a1.626 1.626 0 0 1-1.639-1.641c0-.965.675-1.641 1.639-1.641h21.222c.869 0 1.447.676 1.447 1.641.193.965-.482 1.641-1.447 1.641ZM502.936 422.465a6.176 6.176 0 0 0 6.174-6.178 6.176 6.176 0 0 0-6.174-6.178 6.176 6.176 0 0 0-6.174 6.178 6.176 6.176 0 0 0 6.174 6.178Z" fill="#fff"/><path d="M340.202 647.49c-2.894 0-5.305-2.413-5.305-5.309V134.499c0-2.896 2.411-5.309 5.305-5.309h413.443c2.894 0 5.305 2.413 5.305 5.309v507.585c0 2.896-2.411 5.31-5.305 5.31H340.202v.096Z" fill="#fff"/><path d="M753.645 129.672c2.701 0 4.823 2.124 4.823 4.827v507.585c0 2.703-2.122 4.827-4.823 4.827H340.202c-2.701 0-4.823-2.124-4.823-4.827V134.499c0-2.703 2.122-4.827 4.823-4.827h413.443Zm0-.965H340.202c-3.183 0-5.788 2.606-5.788 5.792v507.585c0 3.186 2.605 5.792 5.788 5.792h413.443c3.183 0 5.787-2.606 5.787-5.792V134.499c0-3.186-2.604-5.792-5.787-5.792Z" fill="#696872"/><path d="M534.094 316.566c8.151 0 14.759-6.613 14.759-14.77 0-8.158-6.608-14.77-14.759-14.77s-14.759 6.612-14.759 14.77c0 8.157 6.608 14.77 14.759 14.77Z" fill="#fff"/><path d="M710.911 189.718h-274.92c-2.123 0-3.955 1.834-3.955 3.958v99.528h66.656c3.858 0 6.752 2.993 6.752 6.757v84.083h205.467c1.158 0 2.316-.483 2.991-1.351l.193-.194c.193-.289.482-.675.482-.965.193-.483.289-.965.289-1.448v-186.41c-.193-2.124-1.832-3.958-3.955-3.958Z" fill="#E1E7F3"/><path d="M714.191 205.453H432.614v1.158h281.577v-1.158ZM442.068 201.495a3.28 3.28 0 0 0 3.279-3.282 3.281 3.281 0 0 0-3.279-3.283 3.281 3.281 0 0 0-3.28 3.283 3.281 3.281 0 0 0 3.28 3.282ZM451.907 201.495a3.282 3.282 0 0 0 0-6.565 3.282 3.282 0 0 0 0 6.565ZM461.65 201.495a3.282 3.282 0 0 0 0-6.565 3.281 3.281 0 0 0-3.28 3.283 3.281 3.281 0 0 0 3.28 3.282ZM643.966 230.166H502.55a5.95 5.95 0 0 0-5.98 5.985c0 3.379 2.604 5.985 5.98 5.985h141.319a5.95 5.95 0 0 0 5.981-5.985c0-3.379-2.605-5.985-5.884-5.985Zm0 11.005H502.55c-2.797 0-5.016-2.124-5.016-5.02 0-2.896 2.122-5.02 5.016-5.02h141.319c2.798 0 5.016 2.124 5.016 5.02.193 2.703-2.122 5.02-4.919 5.02Z" fill="#CCC"/><path d="M687.181 277.082H545.862a5.952 5.952 0 0 0-5.98 5.986c0 3.378 2.604 5.985 5.98 5.985h141.319a5.952 5.952 0 0 0 5.981-5.985c0-3.283-2.604-5.986-5.981-5.986ZM687.181 298.899H545.862a5.952 5.952 0 0 0-5.98 5.986c0 3.378 2.604 5.985 5.98 5.985h141.319a5.952 5.952 0 0 0 5.981-5.985c0-3.379-2.604-5.986-5.981-5.986ZM687.181 320.62H545.862a5.95 5.95 0 0 0-5.98 5.985c0 3.379 2.604 5.985 5.98 5.985h141.319a5.95 5.95 0 0 0 5.981-5.985c0-3.379-2.604-5.985-5.981-5.985Z" fill="#fff"/><path d="M523.097 267.332h-64.341c-2.798 0-5.113 2.317-5.113 5.117v20.369h.869v-20.369c0-2.317 2.025-4.344 4.34-4.344h64.341c2.316 0 4.341 2.027 4.341 4.344v64.486c0 2.316-2.025 4.344-4.341 4.344h-17.942v.868h17.942c2.798 0 5.113-2.316 5.113-5.116v-64.389c0-2.993-2.315-5.31-5.209-5.31ZM474.094 400.648h-75.242c-7.621 0-7.813-11.777 0-11.777h75.242c7.62 0 7.813 11.777 0 11.777ZM474.094 422.369h-75.242c-7.621 0-7.813-11.778 0-11.778h75.242c7.62.193 7.813 11.778 0 11.778ZM474.094 444.282h-75.242c-7.621 0-7.813-11.777 0-11.777h75.242c7.62 0 7.813 11.584 0 11.777Z" fill="#CCC"/><path d="M472.743 374.777h-72.444c-4.148 0-7.428-3.283-7.428-7.434v-40.641c0-4.151 3.28-7.434 7.428-7.434h72.444c4.148 0 7.428 3.283 7.428 7.434v40.641c.096 4.151-3.28 7.434-7.428 7.434Z" fill="#ADA3F1"/><path d="M578.467 456.929c0 6.467 2.605 12.742 7.138 17.376.193.193.29.29.676.483 1.157 1.158 2.508 2.123 3.858 2.992.289.193.482.29.868.483 1.351.869 2.798 1.448 4.438 2.027.289.193.482.193.868.193 4.823 1.352 10.128 1.352 14.952-.482.193 0 .193 0 .289-.194 12.733-4.633 19.196-18.727 14.566-31.47-4.63-12.743-18.714-19.211-31.447-14.577-9.743 3.572-16.206 12.743-16.206 23.169Z" fill="#fff"/><path d="M604.319 473.146c6.606 0 11.962-5.359 11.962-11.97 0-6.611-5.356-11.97-11.962-11.97s-11.961 5.359-11.961 11.97c0 6.611 5.355 11.97 11.961 11.97Z" fill="#ADA3F1"/><path d="M603.644 466.196v-.483c.868 0 1.447 0 2.122-.483.29-.193.482-.675.482-.965 0-.193 0-.483-.289-.676-.482-.289-.965-.289-1.35 0l-.29.193.675-5.116h.483l-.676 4.441c.483-.193.965-.193 1.447.193.29.289.483.675.483.965 0 .483-.29.965-.675 1.352-.676.579-1.737.579-2.412.579ZM610.011 459.052h-2.316v.483h2.316v-.483ZM602.39 459.052h-2.315v.483h2.315v-.483ZM610.3 453.453c.289.676.289 1.448-.289 2.027-.676.676-1.64.869-2.605.676-.965-.193-2.122-.676-3.183-.289-.868.289-1.447.965-2.315 1.351-.869.193-1.833 0-2.026-.869-.193-.289.482-.676.675-.193.193.483.965.483 1.447.29.675-.193 1.351-.869 2.026-1.159.868-.289 1.833-.289 2.604 0 .869.193 1.64.483 2.508.193.676-.289.965-.965.676-1.641-.29-.386.193-.772.482-.386Z" fill="#2F2E41"/><path d="M613.58 459.921c0 2.027.964 3.668 2.315 3.958h.289c1.447 0 2.605-1.834 2.605-3.958 0-1.158-.29-2.317-.965-3.186-.193-.289-.482-.482-.868-.675-.386-.193-.482-.193-.868-.193s-.868.193-1.158.289c-.675.772-1.35 2.027-1.35 3.765ZM589.753 459.921c0 1.641.676 3.186 1.833 3.861.289.194.675.194.965.194h.193c1.35-.194 2.508-1.835 2.508-3.958 0-1.642-.676-3.186-1.64-3.669a1.861 1.861 0 0 0-.965-.289c-.289 0-.675 0-.868.193-.289.193-.482.289-.868.675-.772.676-1.158 1.835-1.158 2.993Z" fill="#3F3D56"/><path d="M591.779 463.203c.193 0 .289-.193.289-.289v-.193c-2.315-6.758 1.351-14.288 8.103-16.605 6.753-2.316 14.277 1.352 16.592 8.11.675 2.123.868 4.633.289 6.757 0 .193 0 .29.29.29.193 0 .289 0 .289-.29 1.447-7.433-3.183-14.77-10.611-16.218-7.427-1.448-14.759 3.186-16.206 10.619-.482 2.317-.289 4.827.483 7.144.096.675.289.675.482.675Z" fill="#3F3D56"/><path d="M597.76 468.802c0 1.835-.676 3.862-2.026 5.117-1.351 1.351-3.183 2.317-5.016 2.027-1.833-.289-3.183-1.834-2.99-3.668.192-1.448 1.447-2.607 2.99-2.51h.482c1.64.482 2.315 2.799.965 3.958-.29.289-.868-.193-.482-.483a1.777 1.777 0 0 0 .192-2.317c-.192-.193-.289-.289-.482-.289-1.157-.29-2.315.289-2.604 1.351 0 .193-.193.29-.193.483-.193 1.448 1.157 2.606 2.508 2.992 1.64.29 3.183-.482 4.148-1.641 1.157-1.351 1.832-2.992 1.832-4.826 0-.194.193-.29.29-.29a.22.22 0 0 1 .386.096ZM596.216 480.483c4.823 1.352 10.129 1.352 14.952-.482.193 0 .193 0 .29-.193-1.158-.869-2.508-1.449-3.859-2.028a.877.877 0 0 0 0-.965c-.289-.869-1.158-1.448-2.026-1.448h-2.99c-.965 0-1.833.676-2.026 1.448a.877.877 0 0 0 0 .965c-1.157.29-2.315.966-3.28 1.641-.192.193-.289.29-.675.483-.193.193-.386.386-.386.579Z" fill="#2F2E41"/><path d="M603.065 481.931c-2.315 0-4.63-.289-6.945-.965-.29 0-.483-.193-.868-.29-1.64-.482-3.184-1.158-4.438-2.027-.289-.193-.482-.29-.868-.483-1.447-.868-2.797-1.834-3.955-2.992-.193-.193-.289-.29-.675-.483-9.743-9.75-9.936-25.678 0-35.622 9.936-9.943 25.659-9.943 35.595 0 9.936 9.944 9.936 25.679 0 35.622-2.605 2.607-5.788 4.634-9.261 5.792-.192 0-.192 0-.289.193-2.701.966-5.498 1.255-8.296 1.255Zm0-48.943c-13.119 0-23.826 10.619-23.826 23.844 0 6.275 2.508 12.453 6.945 16.894l.482.482c1.158 1.159 2.508 2.028 3.859 2.8.289.193.482.29.868.483 1.351.868 2.798 1.351 4.341 1.834.289.193.482.193.868.193 4.823 1.351 9.743 1.158 14.373-.29l.29-.193c12.443-4.44 18.714-18.245 14.276-30.505-3.665-9.364-12.54-15.542-22.476-15.542Z" fill="#E1E7F3"/><path d="M673.773 457.218h-37.331a3.007 3.007 0 0 1-2.991-2.992 3.007 3.007 0 0 1 2.991-2.993h37.331c1.64 0 2.99 1.351 2.99 2.993a3.006 3.006 0 0 1-2.99 2.992ZM686.024 467.161h-49.582a3.007 3.007 0 0 1-2.991-2.992 3.007 3.007 0 0 1 2.991-2.993h49.582c1.64 0 2.99 1.352 2.99 2.993a3.006 3.006 0 0 1-2.99 2.992Z" fill="#ADA3F1"/><path d="M673.773 505.486h-92.991a3.007 3.007 0 0 1-2.99-2.993 3.006 3.006 0 0 1 2.99-2.992h92.991c1.64 0 2.99 1.351 2.99 2.992a3.007 3.007 0 0 1-2.99 2.993ZM685.927 515.429H580.686a3.007 3.007 0 0 1-2.991-2.992 3.007 3.007 0 0 1 2.991-2.993h105.241a3.007 3.007 0 0 1 2.991 2.993 3.007 3.007 0 0 1-2.991 2.992ZM673.773 538.308h-92.991a3.006 3.006 0 0 1-2.99-2.992 3.006 3.006 0 0 1 2.99-2.993h92.991c1.64 0 2.99 1.351 2.99 2.993a3.006 3.006 0 0 1-2.99 2.992ZM685.927 548.251H580.686a3.007 3.007 0 0 1-2.991-2.992 3.007 3.007 0 0 1 2.991-2.993h105.241a3.007 3.007 0 0 1 2.991 2.993 3.007 3.007 0 0 1-2.991 2.992ZM673.773 571.323h-92.991a3.006 3.006 0 0 1-2.99-2.992 3.007 3.007 0 0 1 2.99-2.993h92.991c1.64 0 2.99 1.352 2.99 2.993a3.006 3.006 0 0 1-2.99 2.992ZM685.927 581.266H580.686a3.007 3.007 0 0 1-2.991-2.992 3.007 3.007 0 0 1 2.991-2.993h105.241a3.007 3.007 0 0 1 2.991 2.993 3.007 3.007 0 0 1-2.991 2.992c.097 0 .097 0 0 0ZM758.468 160.564H335.283v-25.775c0-2.8 2.218-5.117 4.919-5.117h413.346c2.701 0 4.92 2.317 4.92 5.117v25.775Z" fill="#E1E7F3"/><path d="M362.389 149.945a4.825 4.825 0 0 0 4.823-4.827 4.825 4.825 0 0 0-4.823-4.827 4.825 4.825 0 0 0-4.823 4.827 4.825 4.825 0 0 0 4.823 4.827ZM380.717 149.945a4.825 4.825 0 0 0 4.823-4.827 4.825 4.825 0 0 0-4.823-4.827 4.825 4.825 0 0 0-4.823 4.827 4.825 4.825 0 0 0 4.823 4.827ZM399.334 149.945a4.826 4.826 0 0 0 4.824-4.827 4.826 4.826 0 0 0-4.824-4.827 4.825 4.825 0 0 0-4.823 4.827 4.825 4.825 0 0 0 4.823 4.827ZM734.545 137.974H713.13c-.868 0-1.447.483-1.447 1.255 0 .676.675 1.159 1.447 1.159h21.415c.868 0 1.64-.483 1.64-1.159.096-.579-.579-1.255-1.64-1.255ZM734.545 143.96H713.13c-.868 0-1.447.482-1.447 1.255 0 .675.675 1.158 1.447 1.158h21.415c.868 0 1.64-.483 1.64-1.158.096-.773-.579-1.255-1.64-1.255ZM734.545 149.945H713.13c-.868 0-1.447.483-1.447 1.255 0 .676.675 1.158 1.447 1.158h21.415c.868 0 1.64-.482 1.64-1.158.096-.772-.579-1.255-1.64-1.255Z" fill="#fff"/><path d="M500.428 468.995H366.826c-2.701 0-4.823-2.123-4.823-4.826V298.031c0-2.703 2.122-4.827 4.823-4.827h133.602c2.701 0 4.823 2.124 4.823 4.827v166.234c0 2.607-2.122 4.73-4.823 4.73Z" stroke="#696872" stroke-miterlimit="10"/><path d="M502.068 306.622c-6.463 0-11.769-5.309-11.769-11.777 0-6.468 5.306-11.777 11.769-11.777s11.769 5.309 11.769 11.777c0 6.468-5.113 11.777-11.769 11.777Z" fill="#ADA3F1"/><path d="M507.566 294.362h-5.016v-5.599c0-.289-.193-.482-.482-.482s-.482.193-.482.482v5.599h-5.016c-.29 0-.483.193-.483.483s.193.483.483.483h5.016v5.599c0 .289.193.482.482.482s.482-.193.482-.482v-5.599h5.016c.29 0 .483-.193.483-.483s-.193-.483-.483-.483Z" fill="#fff"/><path d="M700.783 602.504H565.927c-2.701 0-4.823-2.123-4.823-4.826v-182.26c0-2.703 2.122-4.827 4.823-4.827h134.856c2.701 0 4.823 2.124 4.823 4.827v182.26c0 2.703-2.122 4.826-4.823 4.826Z" stroke="#696872" stroke-miterlimit="10"/><path d="M704.738 625.576c-12.251 0-22.187-9.943-22.187-22.203s9.936-22.203 22.187-22.203c12.25 0 22.186 9.943 22.186 22.203-.096 12.26-9.936 22.203-22.186 22.203Z" fill="#ADA3F1"/><path d="M714.866 602.504h-9.26v-10.619c0-.482-.29-.868-.868-.868-.579 0-.868.289-.868.868v10.619h-9.261c-.482 0-.868.29-.868.869s.289.869.868.869h9.261v10.619c0 .483.289.869.868.869.578 0 .868-.29.868-.869v-10.619h9.26c.483 0 .868-.29.868-.869s-.482-.869-.868-.869Z" fill="#fff"/></g><g clip-path="url(#c)"><path d="M27.012 58.462a4.912 4.912 0 1 0 0-9.823 4.912 4.912 0 0 0 0 9.823ZM45.773 58.462a4.912 4.912 0 1 0 0-9.823 4.912 4.912 0 0 0 0 9.823ZM64.632 58.462a4.912 4.912 0 1 0 0-9.823 4.912 4.912 0 0 0 0 9.823Z" fill="#fff"/><path d="M7.858 665.202c-2.947 0-5.402-2.456-5.402-5.404V41.958c0-2.948 2.455-5.404 5.402-5.404h630.018c2.947 0 5.403 2.456 5.403 5.404v617.84c0 2.948-2.456 5.404-5.403 5.404H7.858Z" fill="#fff"/><path d="M637.876 37.045c2.75 0 4.911 2.162 4.911 4.913v617.841c0 2.75-2.161 4.912-4.911 4.912H7.858c-2.75 0-4.911-2.162-4.911-4.912V41.958c0-2.751 2.16-4.913 4.911-4.913h630.018Zm0-.982H7.858c-3.241 0-5.893 2.653-5.893 5.895v617.841c0 3.242 2.652 5.894 5.893 5.894h630.018c3.241 0 5.894-2.652 5.894-5.894V41.958c0-3.242-2.653-5.895-5.894-5.895Z" fill="#696872"/><path d="M263.834 540.337H58.837c-2.75 0-4.911-2.161-4.911-4.912V368.021c0-2.751 2.16-4.912 4.911-4.912h204.997c2.75 0 4.911 2.161 4.911 4.912v167.404c0 2.652-2.161 4.912-4.911 4.912Z" stroke="#696872" stroke-miterlimit="10"/><path d="M642.787 68.483H2.947V42.35c0-2.849 2.259-5.206 4.911-5.206h629.92c2.75 0 4.911 2.358 4.911 5.206l.098 26.133Z" fill="#E1E7F3"/><path d="M30.45 57.676a4.912 4.912 0 1 0 0-9.823 4.912 4.912 0 0 0 0 9.823ZM49.211 57.676a4.912 4.912 0 1 0 0-9.823 4.912 4.912 0 0 0 0 9.823ZM68.07 57.676a4.912 4.912 0 1 0 0-9.823 4.912 4.912 0 0 0 0 9.823ZM618.526 45.494H596.72c-.884 0-1.474.492-1.474 1.277 0 .688.688 1.18 1.474 1.18h21.806c.884 0 1.669-.492 1.669-1.18 0-.687-.589-1.277-1.669-1.277ZM618.526 51.585H596.72c-.884 0-1.474.491-1.474 1.277 0 .688.688 1.18 1.474 1.18h21.806c.884 0 1.669-.492 1.669-1.18 0-.786-.589-1.277-1.669-1.277ZM618.526 57.676H596.72c-.884 0-1.474.491-1.474 1.277 0 .688.688 1.18 1.474 1.18h21.806c.884 0 1.669-.492 1.669-1.18 0-.786-.589-1.277-1.669-1.277Z" fill="#fff"/><path d="M376.498 302.887H59.819c-2.75 0-4.911-2.161-4.911-4.912V170.85h321.59v132.037Z" fill="#E1E7F3"/><path d="M332.1 229.795c0 52.854-31.432 71.422-70.231 71.422h-2.652c-1.866 0-3.536-.197-5.402-.197-34.969-2.554-62.275-21.907-62.275-71.028 0-50.987 64.927-115.139 69.838-119.855l.295-.295S332.1 177.04 332.1 229.795Z" fill="#F8FE91"/><path d="m259.315 293.161 25.637-35.956-25.833 39.788v4.027c-1.867 0-3.536-.196-5.403-.196l2.652-52.952v-.295l.295-5.108-25.637-39.788 25.834 36.153v.982l2.062-39.984-22.1-41.163 22.395 34.286 2.161-82.916v-.393.295l-.295 65.33 21.905-26.034-22.101 31.536-.491 35.76 20.627-34.385-20.627 39.69-.295 19.943 29.861-47.746-30.057 54.819-.59 44.307Z" fill="#696872"/><path d="M261.673 632.88H62.57c-3.242 0-5.894-2.652-5.894-5.894v-66.117c0-3.242 2.652-5.894 5.894-5.894h199.103c3.241 0 5.893 2.652 5.893 5.894v66.117c.098 3.144-2.652 5.894-5.893 5.894Z" fill="#E1E7F3"/><path d="M463.919 302.887h-404.1c-2.75 0-4.911-2.161-4.911-4.912V143.834c0-2.751 2.161-4.912 4.911-4.912h404.198c2.75 0 4.911 2.161 4.911 4.912v154.141c-.098 2.652-2.259 4.912-5.009 4.912Z" stroke="#696872" stroke-miterlimit="10"/><path d="M493.485 549.08a6.286 6.286 0 0 0 6.286-6.287 6.287 6.287 0 1 0-12.573 0 6.287 6.287 0 0 0 6.287 6.287ZM525.211 441.309c8.3 0 15.029-6.729 15.029-15.031 0-8.301-6.729-15.031-15.029-15.031s-15.028 6.73-15.028 15.031c0 8.302 6.728 15.031 15.028 15.031Z" fill="#fff"/><path d="M293.596 567.55H94.493c-3.242 0-5.894-2.653-5.894-5.895V400.146c0-3.242 2.652-5.894 5.894-5.894h199.103c3.241 0 5.893 2.652 5.893 5.894v161.509c-.098 3.34-2.652 5.895-5.893 5.895Z" fill="#ADA3F1"/><path d="M216.685 527.86H114.826l48.13-83.21c.884-1.671 3.045-2.162 4.518-1.376.492.295.983.688 1.376 1.376l32.218 55.899 1.473 2.653 14.144 24.658Z" fill="#fff"/><path d="M273.361 527.86H185.45l17.091-24.855 1.179-1.866 22.297-32.224c1.473-1.866 4.42-2.161 6.286-.687l.295.294c.098.099.196.295.295.295l40.468 59.043ZM267.271 442.488c8.3 0 15.029-6.729 15.029-15.031 0-8.301-6.729-15.031-15.029-15.031s-15.028 6.73-15.028 15.031c0 8.302 6.728 15.031 15.028 15.031Z" fill="#fff"/><path d="M466.276 176.647c19.367 0 35.067-15.703 35.067-35.073 0-19.369-15.7-35.072-35.067-35.072-19.366 0-35.066 15.703-35.066 35.072 0 19.37 15.7 35.073 35.066 35.073Z" fill="#ADA3F1"/><path d="M479.438 140.396h-11.983V126.74c0-.688-.491-.982-.982-.982s-.983.491-.983.982v13.656h-11.983c-.688 0-.982.491-.982.982s.491.982.982.982h11.983v13.656c0 .688.492.982.983.982s.982-.491.982-.982v-13.459h11.983c.688 0 .983-.491.983-.983 0-.491-.491-1.178-.983-1.178Z" fill="#fff"/></g><defs><clipPath id="a"><path fill="#fff" transform="translate(712)" d="M0 0h250v569H0z"/></clipPath><clipPath id="b"><path fill="#fff" transform="translate(329 125)" d="M0 0h435v525H0z"/></clipPath><clipPath id="c"><path fill="#fff" transform="translate(0 34)" d="M0 0h650v637H0z"/></clipPath></defs></svg>