<svg width="150" height="39" fill="none" xmlns="http://www.w3.org/2000/svg"><path d="M27.8 16.453c2.888 0 3.538 1.266 3.538 2.844 0 1.674-.786 2.872-3.525 2.872-2.723 0-3.51-1.129-3.51-2.872 0-1.715.858-2.844 3.498-2.844ZM57.98 16.453c2.887 0 3.537 1.266 3.537 2.844 0 1.674-.787 2.872-3.526 2.872-2.721 0-3.509-1.129-3.509-2.872 0-1.715.858-2.844 3.497-2.844Z" fill="#fff"/><path fill-rule="evenodd" clip-rule="evenodd" d="M2.233 35.75V2.83h145.931v32.92H2.234Zm69.55-1.857h74.541V4.686h-74.54v29.207Zm-43.969-8.921c5.127 0 7.282-2.232 7.282-5.716 0-3.542-2.427-5.647-7.282-5.647-4.78 0-7.295 2.286-7.295 5.647 0 3.792 2.639 5.716 7.295 5.716ZM9.99 13.86v10.945h10.347V21.89h-6.603v-8.03H9.99Zm36.687 10.945-.097-1.06a6.583 6.583 0 0 1-4.311 1.227c-2.307 0-4.229-.698-5.306-2.105a5.794 5.794 0 0 1-1.023-3.514 5.476 5.476 0 0 1 1.054-3.416c1.09-1.366 3.067-2.272 6.01-2.272 3.386 0 5.375 1.045 6.231 2.802.184.414.292.858.318 1.31h-3.581a1.486 1.486 0 0 0-.483-.697 3.783 3.783 0 0 0-2.419-.627 3.53 3.53 0 0 0-2.79.878 3.046 3.046 0 0 0-.567 2.05c-.05.696.135 1.389.525 1.966a3.622 3.622 0 0 0 2.86.962 3.97 3.97 0 0 0 2.846-.893 1.76 1.76 0 0 0 .345-.742h-3.854V18.32h7.212v6.484h-2.97Zm11.316.167c5.126 0 7.282-2.232 7.282-5.716 0-3.542-2.432-5.647-7.282-5.647-4.78 0-7.296 2.286-7.296 5.647 0 3.792 2.64 5.716 7.296 5.716Z" fill="#fff"/><path d="M78.09 24.762V13.817h2.668v10.945h-2.669ZM94.462 20.19c-.676.892-1.84 1.3-3.481 1.31l-4.933-.014v3.277h-2.612V13.818h7.546c.605-.064 1.216 0 1.794.19.58.19 1.111.5 1.563.912.596.783.886 1.76.815 2.746a3.971 3.971 0 0 1-.692 2.524Zm-2.141-3.569c-.276-.417-.872-.65-1.88-.65h-4.407v3.332h4.38c1.077 0 1.645-.223 1.907-.655.155-.305.223-.648.193-.99a2.136 2.136 0 0 0-.193-1.037ZM102.85 24.93c-4.92 0-6.425-1.857-6.425-3.695h2.791c0 .906 1.23 1.59 3.759 1.59 2.514 0 3.177-.447 3.177-1.172 0-.809-.497-1.06-2.832-1.324a60.843 60.843 0 0 1-2.183-.265c-3.313-.377-4.588-1.367-4.588-3.138 0-1.868 1.866-3.276 5.914-3.276 4.394 0 6.08 1.743 6.08 3.556h-2.761c0-.92-1.036-1.45-3.482-1.45-2.515 0-3.053.348-3.053 1.031 0 .711.552.934 3.22 1.255.609.084 1.962.237 2.335.278 2.82.293 4.091 1.324 4.091 3.15-.005 2.177-1.939 3.46-6.043 3.46ZM116.752 24.916c-3.606 0-5.955-1.437-5.955-4.457v-6.642h2.638v6.679c0 1.38 1.12 2.3 3.427 2.3 2.086 0 3.33-.864 3.33-2.3v-6.679h2.612v6.89c0 2.745-2.184 4.209-6.052 4.209ZM137.105 24.762v-7.306l-3.386 7.306h-2.569l-3.289-7.306v7.306h-2.485V13.817h3.366l3.731 8.338 3.813-8.338h3.313v10.945h-2.494Z" fill="#fff"/></svg>