<svg width="141" height="40" fill="none" xmlns="http://www.w3.org/2000/svg"><path d="M47.097 25.455V9.898h-2.57v15.557h2.57ZM48.67 20.27c0 3.178 2.147 5.436 5.411 5.436s5.412-2.258 5.412-5.437c0-3.178-2.148-5.436-5.412-5.436s-5.412 2.258-5.412 5.436Zm2.59 0c0-1.861 1.115-3.158 2.821-3.158 1.706 0 2.822 1.297 2.822 3.157 0 1.84-1.116 3.158-2.822 3.158s-2.822-1.318-2.822-3.158ZM60.357 20.06c0 3.011 1.959 5.186 4.886 5.186 1.516 0 2.822-.607 3.475-1.61v1.756c0 1.694-1.074 2.823-2.864 2.823-1.6 0-2.696-.774-2.843-2.133h-2.59c.336 2.697 2.421 4.454 5.285 4.454 3.37 0 5.517-2.196 5.517-5.604v-9.806H68.95l-.147 1.4c-.632-1.087-1.938-1.735-3.475-1.735-2.97 0-4.97 2.237-4.97 5.27Zm2.612-.063c0-1.714 1.095-2.969 2.716-2.969 1.769 0 2.948 1.276 2.948 2.97 0 1.714-1.179 3.031-2.948 3.031-1.6 0-2.716-1.296-2.716-3.032ZM72.495 20.27c0 3.178 2.148 5.436 5.412 5.436s5.412-2.258 5.412-5.437c0-3.178-2.148-5.436-5.412-5.436s-5.412 2.258-5.412 5.436Zm2.59 0c0-1.861 1.116-3.158 2.822-3.158s2.822 1.297 2.822 3.157c0 1.84-1.116 3.158-2.822 3.158s-2.822-1.318-2.822-3.158ZM86.1 13.014c.842 0 1.537-.669 1.537-1.526 0-.836-.695-1.506-1.538-1.506-.863 0-1.516.67-1.516 1.506 0 .857.653 1.526 1.516 1.526Zm-1.285 12.441h2.569V15.126h-2.57v10.33ZM89.635 30.242h2.506v-6.21c.653 1.067 2.063 1.694 3.622 1.694 3.074 0 4.906-2.342 4.864-5.562-.063-3.24-1.937-5.353-4.885-5.353-1.58 0-3.012.69-3.643 1.882l-.148-1.568h-2.316v15.117Zm2.611-9.952c0-1.861 1.137-3.158 2.927-3.158s2.864 1.318 2.864 3.158c0 1.84-1.074 3.136-2.864 3.136-1.79 0-2.927-1.275-2.927-3.136ZM101.279 22.36c.084 2.049 1.685 3.366 4.17 3.366 2.443 0 4.106-1.296 4.106-3.304 0-1.484-.926-2.488-2.632-2.906l-1.832-.439c-.779-.21-1.306-.48-1.306-1.15 0-.71.569-1.213 1.495-1.213.969 0 1.601.544 1.601 1.443h2.337c-.084-2.05-1.621-3.345-3.875-3.345-2.232 0-3.895 1.296-3.895 3.261 0 1.338.779 2.447 2.779 2.97l1.811.46c.674.188 1.095.501 1.095 1.087 0 .815-.779 1.192-1.726 1.192-1.138 0-1.79-.523-1.79-1.422h-2.338ZM114.885 25.727c1.411 0 2.758-.648 3.369-1.61l.169 1.338h2.4V15.126h-2.569v5.415c0 1.861-.716 2.907-2.401 2.907-1.305 0-2.211-.628-2.211-2.76v-5.562h-2.569v6.46c0 2.468 1.348 4.14 3.812 4.14ZM125.659 25.454v-5.938c0-1.673.99-2.467 2.212-2.467 1.221 0 2.021.773 2.021 2.237v6.168h2.506v-5.917c0-1.694.969-2.488 2.19-2.488 1.243 0 2.043.773 2.043 2.237v6.168h2.485v-6.753c0-2.384-1.327-3.89-3.854-3.89-1.579 0-2.822.753-3.327 1.966-.569-1.213-1.706-1.966-3.433-1.966-1.221 0-2.316.565-2.927 1.485l-.126-1.17h-2.359v10.328h2.569ZM119.5 34.685a.72.72 0 0 0 .715-.7c0-.39-.332-.71-.715-.71a.724.724 0 0 0-.725.71c0 .38.332.7.725.7ZM120.954 32.106c0 1.53.947 2.56 2.327 2.56 1.188 0 2.095-.71 2.286-1.77h-.907c-.171.59-.694.94-1.319.94-.886 0-1.45-.68-1.45-1.74 0-1.08.594-1.74 1.47-1.74.605 0 1.128.32 1.289.95h.907c-.161-1.07-1.007-1.79-2.186-1.79-1.43 0-2.417 1.05-2.417 2.59ZM125.924 32.095c0 1.47 1.007 2.57 2.518 2.57s2.518-1.1 2.518-2.57c0-1.47-1.007-2.57-2.518-2.57s-2.518 1.1-2.518 2.57Zm.957 0c0-1 .614-1.73 1.561-1.73s1.561.73 1.561 1.73-.614 1.73-1.561 1.73-1.561-.73-1.561-1.73ZM132.715 34.555v-2.94c0-.77.483-1.27 1.188-1.27.675 0 1.098.43 1.098 1.2v3.01h.927v-2.93c0-.78.473-1.28 1.188-1.28.665 0 1.088.43 1.088 1.2v3.01h.916v-3.21c0-1.13-.664-1.82-1.792-1.82-.766 0-1.36.37-1.602.97-.252-.6-.805-.97-1.611-.97-.615 0-1.158.28-1.43.76l-.071-.62h-.846v4.89h.947Z" fill="#fff"/><path fill-rule="evenodd" clip-rule="evenodd" d="m1.831 20.396.002-.182.004-.182.005-.183.008-.182.009-.182.011-.183.013-.182.015-.182.017-.182.019-.182.02-.182.023-.182L2 18.03l.026-.182.029-.181.03-.181.032-.181.033-.18.036-.181.038-.18.039-.18.041-.18.043-.178.045-.18.047-.178.05-.178.05-.177.052-.178.055-.176.056-.176.058-.176.06-.176.061-.175.064-.174.065-.174.067-.173.07-.172.07-.172.073-.171.074-.171.076-.17.078-.17.08-.168.081-.168.084-.168.085-.166.086-.166.089-.165.09-.164.092-.163.094-.163.095-.162.097-.16.1-.16.1-.16.102-.157.104-.157.105-.157.108-.155.108-.154.11-.153.113-.153.114-.15.115-.15.117-.15.118-.148.12-.147.122-.146.123-.144.125-.144.126-.142.128-.142.13-.14.13-.138.132-.138.134-.136.135-.135.137-.134.138-.133.14-.131.14-.13.142-.129.144-.127.145-.126.147-.124.147-.124.15-.121.15-.12.151-.12.153-.117.155-.117.155-.114.157-.113.158-.112.159-.11.16-.109.162-.107.163-.106.163-.104.165-.102.167-.101.167-.1.168-.098.17-.096.17-.094.171-.093.173-.092.174-.09.174-.088.176-.086.176-.085.177-.083.179-.08.179-.08.18-.078.181-.077.182-.074.183-.073.183-.07.184-.07.185-.067.186-.066.187-.064.187-.062.188-.06.189-.059.19-.056.19-.055.19-.053.191-.051.192-.05.193-.047.193-.046.193-.043.194-.042.195-.04.195-.038.196-.037.196-.034.196-.032.197-.031.197-.029.198-.026.198-.025.198-.023.199-.021.199-.02.199-.016.2-.016.199-.013 1.073-.06.061 5.135h.035l.149-.001.148.001.148.003.149.004.148.006.148.007.149.008.148.01.148.011.149.013.148.014.148.016.148.017.148.02.148.02.148.02.148.024.147.024.147.026.148.027.146.03.147.03.146.031.147.033.146.035.145.036.146.037.144.04.145.04.144.041.144.044.144.044.143.046.143.048.142.048.142.05.142.052.14.054.141.054.14.056.14.057.139.059.139.06.137.061.138.063.137.064.136.066.135.067.135.068.135.07.133.07.133.073.133.074.131.075.131.076.13.078.13.078.129.08.128.082.127.083.126.084.126.085.125.087.123.088.123.089.123.09.121.092.12.093.12.094.119.095.117.096.117.098.116.099.115.1.114.101.113.102.111.104.111.105.11.105.109.107.108.108.106.11.106.11.104.111.104.112.102.114.101.114.1.116.1.116.097.118.097.119.095.12.094.12.093.121.092.123.09.123.09.125.088.125.087.126.086.127.084.128.083.13.082.13.08.13.08.131.077.133.076.133.076.134.073.135.073.135.071.137.07.137.068.138.067.138.065.14.065.14.062.14.062.142.06.142.058.142.057.144.055.144.054.144.053.145.05.146.05.146.049.147.046.148.045.148.044.148.042.149.04.15.04.15.037.15.036.15.035.152.032.151.032.152.03.153.028.152.027.154.025.153.023.154.022.154.02.154.02.154.016.155.016.155.014.156.012.155.011.156.01.156.007.156.006.156.004.157.003.156.001.156v.157l-.002.157-.004.157-.005.156-.007.157-.009.157-.01.157-.012.157-.013.156-.015.157-.017.157-.018.156-.02.157-.022.156-.023.156-.025.156-.026.156-.029.155-.03.156-.03.155-.033.155-.035.155-.036.155-.038.154-.04.154-.04.153-.043.154-.044.152-.046.153-.047.152-.05.152-.05.151-.052.151-.054.15-.055.15-.057.15-.059.15-.06.148-.061.148-.064.148-.064.147-.067.146-.068.146-.069.145-.07.145-.073.144-.074.143-.076.143-.077.142-.078.142-.08.14-.082.14-.083.14-.084.138-.086.138-.087.137-.09.136-.09.135-.091.135-.093.134-.095.133-.096.132-.097.13-.099.131-.1.13-.102.128-.103.127-.104.127-.105.125-.108.125-.108.124-.11.122-.11.122-.113.12-.113.12-.115.119-.116.117-.118.116-.118.116-.12.114-.121.113-.123.112-.123.11-.125.11-.126.109-.127.107-.128.106-.13.105-.13.104-.132.102-.133.101-.134.1-.135.099-.136.097-.137.096-.139.096-.139.093-.14.092-.142.091-.142.09-.143.088-.144.087-.146.085-.146.084-.147.083-.148.081-.149.08-.15.079-.15.077-.152.076-.153.074-.153.073-.154.071-.155.07-.156.068-.156.067-.157.065-.158.064-.159.063-.16.06-.16.06-.16.057-.162.057-.162.054-.162.054-.164.051-.164.05-.164.049-.166.046-.165.046-.166.043-.167.042-.167.04-.168.04-.168.037-.169.036-.17.034-.169.032-.17.03-.17.03-.17.027-.172.026-.171.024-.172.022-.172.021-.172.02-.173.017-.173.016-.173.014-.173.012-.174.011-.173.01-.174.006-.174.006-.174.004-.175.002-.174.001-.175-.001-.174-.003-.175-.004-.174-.007-.175-.008-.174-.01-.175-.01-.175-.014-.174-.014-.174-.017-.175-.018-.174-.02-.174-.021-.174-.023-.174-.025-.173-.027-.173-.028-.174-.03-.173-.032-.172-.034-.173-.035-.172-.037-.171-.038-.172-.04-.171-.042-.17-.044-.171-.045-.17-.047-.17-.049-.169-.05-.168-.052-.169-.054-.168-.055-.167-.057-.166-.059-.167-.06-.165-.062-.165-.063-.165-.065-.164-.067-.163-.069-.162-.07-.162-.071-.162-.074-.16-.075-.16-.076-.16-.078-.158-.08-.158-.08-.156-.084-.157-.084-.155-.086-.154-.087-.154-.09-.153-.09-.152-.092-.15-.094-.15-.095-.15-.096-.148-.098-.148-.1-.146-.1-.145-.103-.145-.104-.143-.106-.142-.107-.142-.108-.14-.11-.14-.11-.137-.113-.137-.114L8 33.856l-.135-.117-.133-.118-.133-.12-.13-.12-.13-.122-.13-.123-.127-.125-.127-.126-.125-.127-.124-.129-.122-.13-.122-.13-.12-.133-.118-.133-.118-.135-.116-.136-.114-.137-.113-.138-.112-.14-.11-.14-.11-.142-.108-.142-.106-.144-.105-.145-.103-.146-.102-.147-.1-.149-.1-.149-.097-.15-.095-.151-.095-.153-.093-.153-.091-.154-.09-.155-.088-.156-.087-.157-.085-.158-.083-.159-.082-.16-.08-.16-.079-.162-.076-.162-.076-.163-.073-.164-.072-.164-.07-.166-.07-.166-.066-.167-.066-.167-.063-.169-.062-.169-.06-.17-.058-.17-.057-.17-.055-.172-.053-.172-.051-.173-.05-.173-.048-.174-.046-.175-.044-.175-.043-.175-.04-.176-.04-.176L2.187 24l-.035-.177-.033-.178-.032-.178-.03-.179-.028-.178-.026-.18-.024-.18-.023-.179-.02-.18-.02-.18-.016-.181-.015-.18-.014-.182-.011-.181-.01-.182-.007-.181-.006-.182-.004-.182-.002-.182v-.182ZM19.573 7.06l-.041-3.5-.04.004-.182.019-.181.02-.182.024-.18.024-.181.026-.18.028-.18.03-.18.032-.179.033-.179.035-.177.036-.178.039-.178.04-.177.041-.176.044-.175.045-.175.047-.175.048-.174.05-.173.052-.173.054-.172.055-.171.057-.171.058-.17.06-.17.062-.168.063-.168.065-.167.067-.166.068-.166.07-.165.07-.164.074-.163.074-.162.076-.161.077-.16.08-.16.08-.159.082-.158.083-.156.085-.157.087-.155.088-.153.09-.153.09-.152.092-.15.094-.15.095-.15.097-.147.098-.146.1-.146.1-.145.102-.143.103-.142.105-.14.106-.14.108-.14.109-.136.11-.137.11-.135.113-.133.114-.133.115-.131.117-.13.117-.129.119-.127.12-.126.12-.125.123-.124.123-.122.125-.12.126-.12.126-.118.128-.117.13-.115.129-.114.131-.112.132-.111.133-.11.135-.108.135-.107.136-.105.137-.104.138-.102.139-.101.14-.1.14-.097.142-.096.143-.095.143-.094.144-.091.145-.09.146-.089.147-.087.147-.086.149-.083.149-.083.15-.08.15-.08.151-.077.152-.076.152-.075.154-.072.154-.071.154-.07.155-.068.156-.066.156-.064.157-.063.157-.062.158-.06.158-.057.16-.056.159-.055.16-.053.16-.05.16-.05.162-.048.161-.046.162-.045.162-.043.163-.04.163-.04.163-.038.163-.035.164-.035.165-.032.164-.031.164-.029.165-.027.165-.026.165-.024.165-.022.166-.02.165-.02.166-.017.166-.015.166-.013.165-.012.166-.01.166-.01.166-.006.166-.005.166-.003.166-.002.166v.166l.002.165.004.166.005.166.007.165.008.165.01.165.013.165.014.164.015.165.017.164.019.164.02.163.022.163.024.163.026.163.027.163.029.162.03.161.032.161.034.161.035.16.037.16.04.16.04.16.041.158.044.158.045.157.047.158.048.156.05.156.051.155.054.155.054.154.056.154.058.153.06.152.06.152.063.151.064.15.065.15.067.149.068.148.07.147.072.147.072.146.075.145.075.144.078.144.078.142.08.142.082.14.083.141.084.14.086.137.087.138.088.136.09.136.091.134.093.134.094.132.095.132.096.13.098.13.099.129.1.127.102.127.103.125.104.125.105.123.106.122.108.121.109.12.11.12.111.117.113.116.113.116.115.114.115.113.117.112.118.11.12.11.12.108.12.108.123.105.123.105.124.103.125.102.126.1.127.1.129.098.129.097.13.096.13.094.132.093.133.091.133.09.135.09.135.087.136.086.137.085.138.083.138.082.14.081.139.08.14.077.142.076.142.075.143.074.143.072.145.07.145.07.145.068.146.066.146.065.148.064.148.062.148.06.149.059.15.057.15.056.15.055.15.053.152.052.152.05.152.048.153.047.153.046.153.044.154.042.154.041.155.04.154.038.155.036.156.035.155.033.156.032.157.03.156.029.157.027.156.026.157.024.157.022.158.021.157.02.157.018.158.016.158.015.157.013.158.012.158.01.158.01.158.006.157.006.158.004.158.002.157.001h.158l.157-.002.158-.004.157-.005.157-.007.157-.008.157-.01.156-.01.157-.013.156-.015.155-.016.156-.017.155-.019.155-.02.155-.022.155-.023.154-.025.154-.026.153-.028.153-.029.153-.03.152-.033.152-.033.151-.035.151-.037.15-.038.15-.04.15-.04.149-.042.148-.044.148-.045.148-.047.146-.047.147-.05.145-.05.145-.053.145-.053.143-.055.144-.056.142-.058.142-.059.14-.06.141-.062.14-.063.139-.064.138-.066.137-.066.137-.069.136-.069.135-.07.134-.073.133-.073.133-.075.131-.075.131-.078.13-.078.13-.08.128-.08.127-.082.127-.083.125-.084.124-.085.124-.087.122-.088.122-.089.12-.09.12-.09.119-.093.117-.093.117-.095.115-.095.115-.097.113-.098.112-.098.112-.1.11-.1.109-.102.108-.103.107-.104.105-.105.105-.105.103-.107.102-.107.101-.108.1-.11.099-.11.097-.112.096-.112.095-.113.094-.113.092-.115.092-.116.09-.116.089-.117.087-.118.086-.119.086-.119.083-.12.083-.121.08-.122.08-.122.08-.123.076-.124.076-.124.075-.126.073-.125.072-.127.07-.127.07-.127.067-.128.066-.13.065-.128.064-.13.063-.131.06-.13.06-.132.058-.132.057-.133.055-.133.054-.133.052-.134.052-.134.05-.135.048-.135.046-.136.046-.136.044-.135.042-.137.041-.137.04-.137.038-.138.037-.137.035-.138.034-.139.033-.138.03-.14.03-.138.028-.14.027-.139.025-.14.024-.139.022-.14.02-.14.02-.14.018-.14.017-.14.015-.14.013-.141.012-.14.01-.141.01-.14.008-.141.006-.14.005-.141.003-.14.002-.14v-.281l-.003-.14-.004-.14-.006-.14-.006-.14-.009-.14-.01-.14-.01-.138-.013-.14-.014-.138-.015-.139-.017-.138-.018-.138-.02-.138-.021-.138-.022-.137-.024-.137-.025-.137-.027-.136-.028-.136-.03-.136-.03-.134-.033-.136-.033-.134-.035-.134-.036-.133-.038-.134-.04-.133-.04-.132-.041-.131-.043-.132-.044-.13-.046-.13-.047-.13-.048-.13-.05-.128-.05-.129-.053-.127-.053-.127-.055-.126-.056-.126-.057-.125-.06-.125-.059-.123-.06-.123-.063-.123-.064-.121-.064-.122-.066-.12-.067-.12-.068-.118-.07-.119-.07-.117-.072-.117-.073-.116-.074-.115-.076-.114-.076-.114-.077-.112-.08-.112-.079-.111-.08-.11-.083-.11-.083-.108-.084-.107-.085-.107-.086-.106-.087-.105-.088-.104-.09-.103-.09-.102-.09-.1-.093-.101-.093-.1-.094-.097-.096-.098-.096-.096-.096-.095-.098-.095-.1-.093-.099-.092-.1-.091-.102-.09-.102-.09-.103-.087-.104-.088-.105-.086-.106-.084-.106-.084-.108-.083-.107-.081-.11-.08-.109-.08-.11-.078-.111-.077-.112-.076-.113-.075-.113-.074-.114-.072-.114-.072-.116-.07-.115-.07-.117-.067-.117-.066-.118-.066-.118-.064-.119-.064-.12-.062-.12-.06-.12-.06-.121-.058-.122-.057-.122-.056-.122-.054-.123-.054-.128-.054-.12-.049-.125-.05-.124-.048-.126-.047-.126-.046-.126-.045-.126-.043-.127-.043-.127-.04-.128-.04-.128-.038-.128-.037-.128-.036-.13-.035-.128-.033-.13-.032-.13-.03-.129-.03-.13-.028-.13-.027-.13-.026-.13-.024-.132-.023-.13-.022-.132-.02-.13-.02-.132-.017-.131-.017-.131-.015-.132-.014-.131-.012-.132-.012-.132-.01-.131-.009-.132-.007-.131-.007-.132-.004-.131-.004-.132-.002-.131-.002h-.158l.041 3.476H21.482l.096.001.096.003.096.003.097.005.096.005.096.006.096.007.097.008.096.01.096.01.097.01.096.012.096.013.096.014.096.015.096.015.096.017.096.018.096.018.095.02.096.02.095.022.095.022.095.024.095.024.095.025.094.026.094.028.095.028.093.029.094.03.093.03.093.032.093.033.093.034.092.035.092.035.092.037.092.037.09.039.091.039.091.04.09.041.09.042.09.043.088.044.089.045.088.046.088.046.087.048.087.048.087.05.086.05.086.05.085.053.085.053.084.053.084.055.083.055.083.056.082.058.081.058.082.058.08.06.08.06.08.062.079.062.078.063.078.064.077.065.076.065.076.066.075.067.075.068.074.068.073.07.073.07.072.07.071.072.07.073.07.073.07.074.068.075.068.075.067.076.066.077.066.077.065.078.064.08.063.079.063.08.061.081.061.082.06.082.06.083.058.083.058.084.056.085.056.086.055.086.055.086.053.088.053.087.051.089.051.089.05.09.049.09.048.09.047.091.047.092.045.092.045.093.043.093.043.094.041.094.041.095.04.095.039.096.037.096.037.096.036.097.035.098.034.097.033.098.032.1.03.098.03.1.03.1.027.1.027.1.026.1.025.101.024.102.023.102.021.102.021.102.02.102.018.103.018.104.016.103.016.103.014.104.013.104.013.104.01.105.01.104.01.105.008.105.007.105.005.105.005.106.003.105.003.106.001.105v.212l-.002.106-.003.106-.004.106-.005.106-.007.106-.007.106-.009.107-.01.106-.01.106-.012.106-.013.106-.014.106-.015.106-.017.105-.017.106-.018.106-.02.105-.02.106-.023.105-.023.105-.024.105-.025.105-.026.105-.027.104-.029.105-.03.104-.03.103-.032.104-.033.104-.034.103-.035.102-.036.103-.037.102-.039.102-.04.102-.04.102-.041.1-.043.102-.044.1-.044.1-.046.1-.047.1-.048.098-.05.099-.05.098-.05.097-.053.098-.053.096-.054.097-.056.096-.056.095-.057.095-.059.094-.06.094-.06.094-.061.093-.063.092-.063.092-.065.091-.065.09-.067.09-.067.09-.069.09-.069.087-.07.088-.072.087-.072.087-.073.085-.074.085-.075.085-.076.084-.077.083-.078.082-.079.082-.08.08-.08.081-.081.08-.082.078-.084.078-.084.077-.084.077-.086.076-.087.075-.087.074-.088.073-.09.072-.09.072-.09.071-.091.07-.093.07-.093.067-.094.068-.094.067-.095.065-.096.065-.097.064-.098.063-.098.062-.099.061-.1.06-.1.06-.1.058-.103.057-.102.057-.103.055-.104.055-.104.053-.105.053-.105.052-.106.05-.107.05-.107.048-.108.048-.109.046-.109.046-.11.044-.11.044-.11.042-.111.042-.112.04-.112.039-.112.038-.113.037-.114.036-.114.035-.114.034-.115.032-.115.032-.116.03-.116.03-.116.028-.117.027-.117.026-.117.025-.118.024-.118.023-.119.021-.118.02-.12.02-.119.018-.12.017-.12.015-.12.015-.12.013-.12.013-.12.01-.121.01-.121.01-.122.007-.121.006-.122.005-.121.004-.122.003-.122.002h-.244l-.122-.002-.122-.004-.122-.004-.123-.005-.122-.007-.122-.008-.123-.01-.122-.01-.122-.011-.122-.013-.122-.014-.122-.015-.123-.016-.121-.018-.122-.018-.122-.02-.121-.021-.122-.023-.121-.023-.121-.025-.121-.026-.12-.027-.121-.029-.12-.029-.12-.03-.12-.033-.12-.033-.12-.034-.118-.035-.119-.037-.118-.038-.118-.039-.118-.04-.117-.041-.118-.043-.116-.044-.117-.045-.116-.046-.115-.047-.115-.048-.115-.05-.114-.05-.114-.052-.113-.053-.113-.054-.112-.056-.112-.056-.111-.058-.111-.058-.11-.06-.11-.06-.11-.063-.108-.063-.108-.064-.107-.065-.107-.066-.106-.068-.105-.068-.105-.07-.104-.07-.104-.072-.103-.073-.102-.074-.101-.075-.101-.075-.1-.077-.1-.078-.098-.08-.098-.08-.097-.08-.096-.082-.095-.083-.095-.084-.094-.085-.093-.086-.092-.087-.091-.087-.09-.09-.09-.089-.09-.09-.087-.092-.087-.092-.086-.094-.085-.094-.084-.095-.084-.096-.082-.097-.081-.098-.08-.098-.08-.1-.079-.1-.077-.1-.077-.103-.075-.102-.075-.104-.073-.104-.072-.105-.072-.106-.07-.107-.07-.107-.067-.108-.067-.109-.066-.11-.065-.11-.064-.11-.063-.112-.061-.113-.06-.112-.06-.114-.058-.114-.057-.115-.056-.116-.055-.116-.053-.117-.052-.117-.052-.118-.05-.119-.048-.119-.048-.119-.046-.12-.045-.12-.044-.122-.043-.122-.041-.122-.04-.122-.04-.123-.037-.124-.037-.124-.035-.124-.034-.125-.032-.125-.032-.126-.03-.126-.029-.126-.027-.127-.026-.127-.025-.127-.024-.128-.022-.128-.021-.128-.02-.129-.018-.129-.017-.129-.016-.13-.014-.129-.013-.13-.012-.13-.01-.13-.01-.13-.007-.13-.006-.131-.005-.13-.004-.132-.002-.13-.001-.132v-.131l.002-.131.003-.132.005-.131.005-.131.008-.132.008-.131.01-.132.011-.131.013-.131.014-.132.016-.13.016-.132.019-.131.02-.131.02-.131.022-.13.024-.131.025-.13.026-.131.028-.13.029-.13.03-.13.032-.129.033-.13.035-.128.036-.129.037-.128.039-.128.04-.128.04-.128.043-.127.044-.127.045-.126.047-.126.048-.126.05-.125.05-.125.052-.125.053-.123.055-.124.055-.123.058-.123.058-.122.06-.122.06-.12.063-.121.064-.12.065-.12.066-.119.067-.118.069-.118.07-.117.07-.117.073-.116.074-.115.075-.114.076-.114.077-.114.08-.112.079-.112.08-.111.083-.11.083-.11.085-.11.086-.107.087-.108.088-.106.089-.106.09-.105.091-.104.093-.104.094-.102.095-.102.095-.1.098-.1.098-.1.099-.097.1-.098.101-.096.103-.095.103-.094.105-.094.105-.092.106-.092.108-.09.108-.09.11-.088.11-.087.112-.087.112-.085.113-.084.115-.084.115-.082.116-.081.117-.08.117-.079.12-.078.119-.076.12-.076.122-.074.122-.074.123-.072.123-.07.125-.07.125-.07.126-.067.127-.066.128-.065.128-.064.13-.062.13-.062.13-.06.131-.059.132-.057.133-.057.133-.055.133-.054.135-.052.135-.052.136-.05.136-.048.137-.048.137-.046.138-.045.139-.043.139-.042.14-.041.14-.04.14-.038.141-.037.141-.035.142-.034.143-.033.142-.031.143-.03.144-.028.144-.028.144-.025.145-.025.145-.023.145-.021.145-.02.146-.02.054-.006Zm.062 5.154-.042-3.513-.12.016-.128.02-.128.02-.128.022-.128.022-.127.024-.127.026-.127.026-.126.028-.126.029-.126.03-.125.031-.125.033-.12.032-.128.037-.123.036-.123.037-.122.038-.123.04-.121.04-.121.043-.12.043-.12.044-.12.045-.119.047-.118.047-.118.05-.117.049-.117.05-.115.053-.116.053-.115.054-.113.055-.114.057-.112.057-.113.059-.11.06-.112.06-.11.062-.109.062-.108.064-.108.064-.107.066-.107.067-.105.068-.105.068-.104.07-.103.07-.102.072-.102.072-.1.074-.1.074-.1.075-.098.077-.097.077-.097.078-.095.079-.095.08-.094.08-.093.082-.092.082-.091.083-.09.084-.09.085-.088.085-.087.087-.087.087-.085.088-.085.088-.083.09-.083.09-.081.091-.08.092-.08.092-.079.093-.077.094-.077.095-.075.095-.075.096-.073.096-.072.098-.071.097-.07.099-.07.099-.068.1-.067.1-.066.1-.064.102-.064.102-.063.102-.061.103-.06.104-.06.104-.058.104-.057.105-.056.106-.055.106-.053.106-.053.107-.051.107-.05.108-.05.108-.047.109-.047.109-.046.109-.044.11-.043.11-.042.11-.041.11-.04.112-.039.111-.037.112-.036.112-.035.112-.034.112-.033.113-.031.113-.03.113-.03.113-.027.114-.027.113-.025.114-.025.114-.023.114-.022.115-.02.114-.02.115-.018.114-.017.115-.016.115-.015.115-.014.115-.012.115-.011.115-.01.115-.009.115-.007.115-.006.115-.006.115-.004.115-.002.115-.002.115v.23l.003.114.003.115.004.114.006.115.006.114.008.114.01.114.01.113.011.114.013.113.013.113.015.113.016.113.017.112.019.112.02.112.02.112.022.11.023.112.024.11.025.111.026.11.027.11.029.109.03.109.03.108.032.109.033.108.034.107.035.107.036.107.038.106.038.106.04.105.04.105.041.104.043.104.043.103.045.103.045.102.047.102.048.101.048.1.05.101.05.1.052.099.053.098.054.098.054.097.056.097.056.096.058.095.058.095.06.094.06.094.061.092.062.093.063.091.064.09.065.09.066.09.066.089.068.088.068.087.069.087.07.085.07.085.072.084.072.084.074.083.074.082.075.08.075.081.076.08.078.078.077.078.079.077.08.076.08.076.08.075.082.073.082.073.083.072.083.071.085.07.085.07.085.069.086.067.087.067.087.066.088.065.089.064.09.063.089.062.09.061.091.06.092.06.092.058.092.058.093.056.094.056.094.055.095.053.095.053.095.052.096.05.097.05.096.05.098.047.098.047.098.046.098.045.099.044.1.042.099.042.1.041.1.04.1.039.102.038.1.036.102.036.102.035.102.034.103.033.102.031.103.03.103.03.104.03.103.027.104.026.104.026.104.024.104.024.105.022.104.021.105.02.105.02.105.018.105.017.105.017.105.015.105.014.106.013.105.012.106.011.105.01.105.009.106.008.105.006.106.006.105.005.106.004.105.003.105.001h.21l.105-.001.105-.002.105-.004.105-.004.104-.006.105-.006.104-.008.104-.008.104-.01.104-.01.103-.012.103-.013.104-.013.102-.015.103-.015.102-.017.102-.017.102-.019.102-.02.101-.02.101-.02.1-.023.1-.023.1-.025.1-.025.1-.026.099-.027.099-.029.098-.029.098-.03.097-.03.097-.032.097-.033.096-.034.096-.034.095-.036.095-.036.094-.037.094-.038.094-.04.093-.04.092-.04.092-.042.092-.042.09-.044.091-.044.09-.045.09-.046.088-.046.088-.048.088-.048.087-.05.087-.05.086-.05.085-.052.085-.052.084-.053.083-.054.083-.055.082-.055.082-.057.08-.056.081-.058.08-.059.078-.059.079-.06.077-.06.077-.061.076-.063.075-.062.075-.064.074-.064.073-.064.073-.066.072-.065.07-.067.07-.067.07-.068.07-.069.067-.069.067-.07.067-.07.065-.07.065-.072.064-.072.063-.073.063-.073.061-.073.061-.075.06-.074.06-.076.058-.076.057-.076.057-.077.055-.077.055-.078.054-.078.053-.078.053-.08.051-.079.051-.08.05-.08.049-.081.047-.081.048-.082.046-.082.045-.082.045-.083.043-.083.043-.084.041-.083.041-.084.04-.084.04-.085.037-.085.037-.086.037-.085.035-.086.034-.086.034-.087.032-.086.032-.087.03-.087.03-.088.03-.087.027-.088.027-.088.026-.088.025-.088.024-.088.023-.09.023-.088.021-.089.02-.089.02-.089.018-.089.018-.09.017-.089.015-.09.015-.089.014-.09.013-.089.012-.09.01-.09.01-.09.01-.089.008-.09.007-.09.006-.089.006-.09.004-.09.004-.089.002-.09.002-.09v-.267l-.003-.09-.003-.089-.004-.089-.005-.088-.006-.09-.006-.088-.008-.088-.008-.088-.01-.088-.01-.088-.011-.088-.012-.088-.013-.087-.014-.087-.015-.087-.016-.087-.016-.086-.018-.087-.018-.085-.02-.086-.02-.085-.02-.086-.022-.084-.023-.085-.023-.084-.024-.084-.026-.084-.026-.083-.026-.083-.028-.082-.029-.082-.029-.083-.03-.08-.031-.082-.032-.08-.032-.081-.034-.08-.034-.08-.035-.079-.036-.079-.036-.078-.038-.078-.038-.077-.039-.077-.04-.077-.04-.076-.04-.075-.043-.076-.042-.074-.044-.074-.044-.074-.044-.073-.046-.072-.046-.073-.047-.071-.047-.071-.049-.07-.049-.07-.05-.07-.05-.069-.05-.068-.052-.068-.053-.067-.052-.067-.054-.066-.054-.065-.055-.065-.056-.064-.055-.063-.057-.064-.057-.062-.058-.062-.058-.06-.06-.061-.059-.06-.06-.06-.06-.058-.062-.058-.062-.057-.062-.056-.063-.056-.063-.056-.064-.054-.064-.054-.065-.053-.065-.053-.066-.051-.066-.052-.067-.05-.067-.05-.068-.049-.068-.048-.068-.047-.07-.048-.068-.045-.07-.046-.07-.044-.07-.044-.071-.044-.072-.042-.071-.042-.072-.04-.072-.041-.073-.04-.073-.038-.073-.038-.074-.037-.074-.037-.074-.036-.075-.034-.074-.035-.076-.033-.075-.033-.076-.032-.076-.03-.076-.031-.076-.03-.076-.028-.077-.028-.077-.027-.077-.027-.078-.025-.077-.025-.078-.024-.078-.024-.078-.022-.078-.022-.078-.02-.079-.02-.078-.02-.08-.019-.078-.017-.079-.017-.079-.017-.08-.015-.078-.014-.08-.014-.079-.013-.08-.013-.078-.01-.08-.011-.08-.01-.079-.01-.08-.008-.079-.007-.08-.007-.078-.006-.08-.005-.08-.004-.079-.004-.08-.002-.078-.003h-.08l-.078-.001h-.054l.04 3.432H21.443l.045.002.046.001.045.003.046.002.046.003.045.003.046.004.046.005.046.005.046.005.046.005.046.007.046.006.046.008.046.008.045.008.046.009.046.009.046.01.046.01.046.01.046.011.045.012.046.012.046.012.045.013.046.014.045.014.045.014.046.015.045.016.045.016.045.016.045.017.045.018.044.017.045.019.044.018.044.02.045.02.044.02.044.02.043.022.044.022.043.022.043.023.043.023.043.024.043.023.042.025.042.025.043.026.042.026.041.026.041.027.042.027.04.028.041.028.04.03.041.028.04.03.04.03.04.03.039.032.039.031.038.032.039.032.038.033.038.033.037.034.037.034.037.034.037.035.036.036.036.035.036.037.035.036.035.037.034.037.035.038.034.038.033.04.033.038.033.04.033.04.032.04.031.04.032.041.03.041.031.042.03.042.03.043.03.042.028.043.028.044.029.044.027.044.027.045.027.044.026.046.026.045.026.046.025.046.024.047.024.047.024.047.023.047.023.048.022.048.021.049.022.048.02.049.02.05.02.049.02.05.018.05.018.05.018.05.017.05.017.052.016.051.016.052.015.051.014.052.014.052.014.053.013.052.012.053.012.053.012.053.01.054.01.053.01.054.01.054.008.054.008.054.008.055.006.054.007.055.005.055.006.055.004.055.004.055.004.055.002.056.003.055.001.056.001.056v.167l-.001.056-.002.056-.003.057-.003.056-.003.056-.005.056-.005.057-.005.056-.006.056-.007.057-.007.056-.008.057-.009.056-.009.056-.01.057-.01.056-.011.056-.011.057-.013.056-.013.056-.013.056-.014.056-.015.057-.015.055-.016.056-.016.056-.018.056-.017.055-.018.056-.02.055-.019.056-.02.055-.02.055-.022.055-.022.054-.023.055-.023.055-.024.054-.024.054-.025.054-.026.054-.026.053-.027.054-.027.053-.028.053-.029.052-.03.053-.029.052-.03.052-.031.052-.032.052-.032.052-.033.05-.033.051-.034.051-.035.05-.035.05-.035.05-.037.05-.036.049-.038.049-.037.048-.039.048-.039.048-.04.048-.04.047-.04.047-.041.046-.042.047-.043.046-.042.045-.044.045-.044.045-.044.044-.045.044-.046.044-.046.043-.046.043-.047.042-.047.042-.049.042-.048.04-.049.041-.05.04-.05.04-.05.04-.05.039-.052.038-.052.038-.052.038-.053.037-.054.036-.053.036-.054.036-.055.035-.055.034-.055.035-.056.033-.057.033-.056.033-.057.032-.058.031-.058.031-.058.03-.059.03-.059.03-.06.028-.06.029-.06.027-.06.027-.061.027-.061.026-.062.025-.062.025-.062.024-.063.024-.063.023-.063.022-.064.022-.064.021-.064.02-.064.02-.065.02-.065.019-.065.018-.066.018-.066.016-.066.017-.066.015-.067.015-.067.014-.067.014-.067.013-.067.013-.068.011-.068.011-.068.01-.068.01-.069.01-.068.008-.07.008-.068.007-.07.006-.068.006-.07.005-.07.004-.069.004-.07.003-.07.002-.07.002h-.07l-.07.001h-.07l-.07-.002-.07-.002-.071-.002-.07-.003-.071-.004-.07-.005-.072-.005-.07-.006-.07-.007-.071-.008-.071-.008-.07-.009-.071-.01-.07-.01-.072-.01-.07-.013-.07-.012-.07-.013-.071-.014-.07-.015-.07-.015-.071-.016-.07-.017-.07-.017-.07-.018-.07-.02-.07-.019-.069-.02-.07-.021-.068-.022-.07-.022-.068-.023-.069-.024-.069-.025-.068-.025-.068-.026-.068-.026-.068-.028-.067-.028-.068-.029-.067-.029-.067-.03-.066-.03-.067-.032-.066-.033-.066-.033-.065-.033-.066-.034-.064-.035-.065-.036-.065-.036-.064-.037-.064-.038-.063-.038-.063-.04-.063-.039-.062-.04-.062-.041-.062-.042-.061-.042-.061-.043-.061-.043-.06-.045-.06-.044-.06-.046-.058-.046-.059-.047-.058-.047-.058-.048-.057-.049-.056-.05-.057-.049-.056-.05-.055-.052-.055-.051-.054-.052-.054-.053-.054-.054-.053-.054-.052-.054-.052-.055-.051-.056-.051-.057-.05-.056-.05-.058-.05-.058-.048-.058-.048-.06-.048-.059-.047-.06-.046-.06-.046-.062-.045-.061-.045-.063-.044-.062-.043-.064-.043-.063-.042-.064-.042-.065-.04-.065-.04-.066-.04-.066-.04-.066-.038-.067-.037-.067-.037-.068-.036-.069-.036-.068-.035-.07-.034-.069-.034-.07-.033-.07-.032-.07-.031-.072-.03-.072-.03-.071-.03-.073-.029-.072-.028-.073-.027-.073-.026-.074-.026-.074-.025-.074-.024-.075-.023-.075-.023-.075-.021-.076-.021-.075-.02-.076-.02-.077-.019-.076-.018-.077-.017-.077-.017-.078-.015-.077-.015-.078-.014-.078-.013-.079-.012-.078-.012-.079-.011-.079-.01-.079-.009-.079-.008-.08-.008-.079-.007-.08-.005-.08-.005-.08-.005-.08-.003-.08-.003-.08-.001-.08-.001-.08v-.162l.002-.081.003-.08.003-.082.005-.08.005-.082.005-.08.007-.082.008-.08.008-.081.01-.082.01-.08.01-.081.013-.081.012-.081.014-.081.014-.08.016-.082.016-.08.017-.08.018-.081.018-.08.02-.08.02-.081.022-.08.022-.08.023-.08.024-.08.024-.078.026-.08.026-.079.028-.079.028-.079.029-.078.03-.078.03-.078.031-.078.033-.078.033-.077.034-.077.035-.077.035-.076.037-.077.037-.076.038-.075.04-.076.04-.075.04-.074.041-.075.042-.074.043-.073.044-.074.045-.073.045-.072.047-.073.047-.072.048-.071.048-.071.05-.07.05-.07.05-.07.053-.07.052-.069.053-.068.054-.068.055-.068.056-.067.056-.066.057-.066.058-.066.058-.065.06-.064.06-.064.06-.064.062-.063.062-.062.063-.062.063-.061.064-.06.065-.06.066-.06.066-.06.067-.058.067-.057.069-.057.069-.057.07-.056.07-.055.07-.055.072-.053.072-.054.072-.052.074-.052.074-.052.074-.05.075-.05.076-.05.076-.048.077-.048.078-.047.078-.046.078-.046.08-.045.079-.044.08-.043.08-.043.081-.042.082-.04.082-.041.083-.04.083-.039.084-.038.084-.037.084-.037.085-.035.086-.035.086-.034.086-.034.087-.032.087-.031.087-.031.088-.03.088-.03.09-.028.088-.027.09-.027.09-.025.09-.025.09-.024.09-.023.092-.023.091-.021.092-.02.092-.02.092-.019.093-.018.046-.008Zm1.137 6.6-1.055.25-.062-5.19-.05.011-.075.018-.075.018-.074.019-.074.02-.074.02-.073.021-.073.022-.074.022-.072.023-.072.024-.072.025-.072.025-.071.026-.07.026-.071.027-.07.028-.07.029-.07.029-.069.03-.069.03-.068.031-.068.032-.067.032-.067.033-.067.034-.066.034-.066.035-.065.035-.065.036-.064.037-.064.037-.064.038-.063.038-.062.039-.063.04-.061.04-.061.04-.06.041-.061.042-.06.042-.059.043-.058.043-.058.044-.058.044-.057.045-.056.045-.056.046-.056.047-.055.047-.054.047-.054.048-.053.048-.052.049-.052.049-.052.05-.051.05-.05.05-.05.051-.049.052-.049.051-.048.052-.047.053-.047.053-.046.054-.045.053-.045.054-.045.055-.043.055-.043.055-.043.056-.041.056-.042.056-.04.057-.04.057-.04.057-.038.058-.038.058-.037.058-.037.059-.036.058-.035.06-.035.059-.034.06-.033.06-.033.06-.032.06-.031.06-.03.062-.03.06-.03.062-.029.061-.028.062-.027.062-.027.062-.026.062-.025.063-.024.063-.024.062-.024.063-.022.063-.022.064-.021.063-.02.064-.02.063-.02.064-.018.064-.018.064-.017.064-.016.064-.016.064-.015.064-.014.065-.014.064-.013.064-.012.065-.011.064-.011.065-.01.065-.01.064-.009.065-.008.064-.007.065-.007.064-.006.065-.005.065-.005.064-.004.065-.003.064-.003.064-.002.065-.001.064-.001.064v.128l.002.064.002.064.003.064.003.064.004.063.005.063.005.064.006.063.007.063.007.063.008.062.008.063.01.062.01.062.01.062.01.062.012.062.013.061.013.061.013.061.014.061.015.06.016.06.016.061.016.06.018.06.018.059.018.06.019.058.02.058.02.059.02.058.022.057.022.058.022.057.023.057.024.056.024.057.025.056.025.055.026.056.026.055.027.054.028.055.028.053.028.054.03.053.029.053.03.053.03.052.031.051.032.052.032.05.032.051.033.05.034.05.034.05.034.049.035.049.035.048.036.047.036.048.037.047.037.046.038.046.037.046.039.045.039.045.039.044.04.044.04.044.04.043.04.042.042.042.041.042.042.04.043.041.043.04.042.04.044.04.044.038.044.038.044.038.045.037.045.037.045.036.046.036.046.035.046.035.047.034.047.034.047.033.047.033.048.032.048.032.048.03.048.031.05.03.048.03.05.03.049.028.05.027.05.028.05.027.05.026.05.026.051.025.051.025.05.024.052.024.052.023.051.023.052.022.052.021.052.021.052.021.052.02.053.02.052.018.053.018.053.018.052.017.053.017.053.016.054.015.053.015.053.015.054.014.053.013.053.013.054.012.053.011.054.012.054.01.053.01.054.01.054.009.054.008.053.008.054.007.054.007.053.006.054.006.054.005.053.005.054.004.053.003.054.003.053.003.054.002.053.001.053.001h.159l.053-.002.053-.001.053-.003.052-.002.053-.004.052-.003.052-.005.052-.005.052-.005.052-.006.052-.006.051-.007.052-.007.05-.008.052-.008.05-.01.051-.008.05-.01.051-.01.05-.011.05-.011.05-.012.05-.012.049-.013.049-.013.049-.014.048-.013.049-.015.048-.015.048-.015.047-.016.048-.016.047-.017.047-.017.047-.018.046-.018.046-.018.046-.02.046-.019.045-.02.045-.02.045-.02.044-.02.044-.022.044-.022.044-.022.043-.023.043-.023.042-.023.043-.023.042-.024.041-.025.042-.025.04-.025.041-.026.04-.025.04-.027.04-.026.04-.027.038-.027.038-.028.039-.028.038-.028.037-.029.037-.029.037-.03.036-.029.036-.03.036-.03.035-.03.035-.03.034-.032.034-.031.034-.032.033-.032.033-.032.032-.032.032-.033.032-.033.031-.033.031-.033.03-.034.03-.034.03-.034.03-.034.028-.035.028-.035.028-.035.028-.035.027-.036.027-.035.026-.036.026-.036.025-.037.025-.036.025-.037.024-.036.023-.037.024-.037.022-.038.023-.037.022-.037.021-.038.021-.038.02-.038.02-.038.02-.038.02-.039.019-.038.018-.039.018-.039.018-.038.017-.04.016-.038.016-.04.016-.039.015-.039.015-.04.015-.038.014-.04.013-.04.013-.039.013-.04.012-.04.012-.04.011-.039.011-.04.01-.04.01-.04.01-.04.009-.039.009-.04.008-.04.008-.04.007-.04.007-.04.006-.039.006-.04.006-.04.005-.04.005-.04.004-.039.004-.04.003-.04.003-.039.003-.04.002-.039.002-.04.001-.038.001-.04v-.156l-.002-.039-.001-.039-.002-.038-.003-.04-.002-.038-.003-.038-.004-.038-.004-.038-.004-.038-.005-.038-.005-.038-.006-.038-.006-.037-.006-.037-.007-.038-.007-.037-.007-.036-.008-.037-.008-.037-.009-.036-.009-.036-.01-.036-.009-.036-.01-.036-.01-.036-.011-.035-.011-.035-.012-.035-.011-.035-.012-.035-.013-.034-.013-.034-.013-.034-.013-.034-.014-.033-.014-.033-.015-.034-.014-.033-.016-.032-.015-.033-.015-.032-.016-.032-.017-.032-.016-.031-.017-.031-.017-.031-.018-.031-.018-.03-.018-.031-.018-.03-.019-.03-.019-.03-.019-.029-.02-.029-.019-.028-.02-.029-.02-.028-.02-.028-.021-.027-.021-.028-.021-.027-.022-.027-.021-.026-.022-.027-.022-.026-.023-.025-.022-.026-.023-.025-.023-.025-.023-.024-.023-.024-.024-.024-.024-.024-.024-.023-.024-.023-.024-.023-.025-.023-.024-.022-.025-.022-.025-.021-.025-.021-.026-.021-.025-.02-.026-.021-.026-.02-.026-.02-.026-.02-.026-.018-.027-.019-.026-.018-.027-.018-.026-.018-.027-.018-.027-.017-.027-.017-.028-.016-.027-.016-.028-.016-.027-.016-.028-.015-.027-.015-.028-.015-.028-.014-.028-.014-.028-.013-.028-.014-.028-.013L22.52 19l-.028-.013-.028-.012-.028-.012-.03-.01-.028-.012-.028-.01-.029-.011-.028-.01-.029-.01-.029-.01-.028-.009-.029-.008-.029-.01-.028-.007-.03-.008-.028-.008-.028-.007-.03-.007-.028-.007-.029-.006-.028-.006-.029-.006-.029-.005-.028-.005-.029-.005-.028-.005-.029-.004-.028-.004-.029-.003-.028-.004-.029-.003-.028-.002-.028-.003-.028-.002-.028-.002-.028-.001-.029-.001-.027-.001h-.028l-.028-.001H21.3l-.027.001-.027.001-.028.002-.027.001-.027.002-.027.002-.027.002-.026.003-.027.003-.026.003-.027.004-.026.003-.026.004-.026.005-.026.004-.025.005-.026.005-.025.005-.026.005-.025.006Z" fill="#fff"/></svg>