<svg width="130" height="30" fill="none" xmlns="http://www.w3.org/2000/svg"><path d="M13.45 4.65V.4H.05v29.2h13.4v-4.25a10.35 10.35 0 0 1 0-20.7Z" fill="#fff"/><path d="M13.45 4.65v20.7a10.35 10.35 0 0 0 0-20.7ZM31.32 7.25h3V21.7h-3V7.25ZM36 16.75A5.25 5.25 0 1 1 41.22 22 5.178 5.178 0 0 1 36 16.75Zm7.52 0a2.28 2.28 0 1 0-2.28 2.34 2.218 2.218 0 0 0 2.26-2.34h.02Z" fill="#fff"/><path d="M58.31 11.8v9.41c0 3.32-2.6 4.73-5.23 4.73a5 5 0 0 1-4.69-2.4l2.53-1.46a2.27 2.27 0 0 0 2.26 1.25 2 2 0 0 0 2.24-2.12v-.91a3.53 3.53 0 0 1-2.89 1.28 5 5 0 0 1 0-10 3.53 3.53 0 0 1 2.89 1.28v-1l2.89-.06Zm-2.89 4.75a2.4 2.4 0 1 0-2.4 2.3 2.24 2.24 0 0 0 2.4-2.3ZM60 16.75A5.25 5.25 0 1 1 65.24 22 5.19 5.19 0 0 1 60 16.75Zm7.52 0a2.28 2.28 0 1 0-2.27 2.34 2.218 2.218 0 0 0 2.26-2.34h.01ZM71.87 9.15a1.78 1.78 0 1 1 1.78 1.78 1.8 1.8 0 0 1-1.78-1.78Zm.29 2.65h3v9.9h-3v-9.9ZM88 16.75A5 5 0 0 1 83.23 22a3.72 3.72 0 0 1-3-1.21v4.89h-3V11.8h3v.93a3.71 3.71 0 0 1 3-1.2A5 5 0 0 1 88 16.75Zm-3 0a2.36 2.36 0 1 0-2.35 2.42A2.26 2.26 0 0 0 85 16.75ZM97.13 18.73c0 2.28-2 3.25-4.12 3.25a4.34 4.34 0 0 1-4.26-2.36l2.58-1.46A1.62 1.62 0 0 0 93 19.33c.71 0 1.07-.22 1.07-.62 0-1.09-4.87-.51-4.87-3.94 0-2.16 1.82-3.24 3.88-3.24A4.34 4.34 0 0 1 97 13.64L94.42 15a1.46 1.46 0 0 0-1.33-.87c-.52 0-.83.2-.83.55 0 1.14 4.87.39 4.87 4.05ZM108 11.8v9.9h-3v-.93a3.417 3.417 0 0 1-2.82 1.23c-2 0-3.71-1.43-3.71-4.1v-6.1h3v5.65a1.652 1.652 0 0 0 .449 1.3 1.65 1.65 0 0 0 1.281.5c1.08 0 1.84-.64 1.84-2V11.8H108ZM125 15.62v6.08h-3v-5.82c0-1-.47-1.62-1.42-1.62s-1.55.69-1.55 1.86v5.58h-3v-5.82c0-1-.47-1.62-1.42-1.62s-1.55.69-1.55 1.86v5.58h-3v-9.9h3v.91a3.06 3.06 0 0 1 2.66-1.18 2.93 2.93 0 0 1 2.59 1.3 3.263 3.263 0 0 1 2.87-1.3c2.34 0 3.82 1.62 3.82 4.09ZM127.52 11.74a2.2 2.2 0 1 0 0-4.4 2.2 2.2 0 0 0 0 4.4Z" fill="#fff"/></svg>