<svg width="127" height="39" fill="none" xmlns="http://www.w3.org/2000/svg"><path d="M19.5 2A17.501 17.501 0 0 0 7.126 31.874 17.502 17.502 0 0 0 19.5 37v-8.75a8.749 8.749 0 0 1-3.349-16.834 8.749 8.749 0 0 1 3.349-.666V2Z" fill="#fff"/><path d="M19.5 25.334a5.833 5.833 0 1 0 0-11.667 5.833 5.833 0 0 0 0 11.667Z" fill="#fff"/><path d="M2 19.5a17.501 17.501 0 0 0 29.874 12.374A17.502 17.502 0 0 0 37 19.5h-8.75a8.749 8.749 0 0 1-16.834 3.349 8.749 8.749 0 0 1-.666-3.349H2ZM25.333 19.5a5.834 5.834 0 0 0-11.666 0h11.666ZM46.14 12.925h-2.174V25h2.174V12.925ZM47.559 20.722c0 2.794 1.932 4.52 4.485 4.52 2.553 0 4.485-1.726 4.485-4.52 0-2.795-1.932-4.52-4.485-4.52-2.553 0-4.485 1.725-4.485 4.52Zm2.173 0c0-1.656.966-2.622 2.312-2.622 1.345 0 2.311.966 2.311 2.622s-.966 2.622-2.311 2.622c-1.346 0-2.312-.966-2.312-2.622ZM64.296 16.444v1.155h-.172c-.518-.741-1.346-1.397-2.83-1.397-2.035 0-3.863 1.725-3.863 4.382 0 2.656 1.828 4.381 3.864 4.381 1.483 0 2.311-.673 2.794-1.345h.172v.828c0 1.656-.965 2.415-2.38 2.415-1.414 0-2.139-.76-2.432-1.743l-1.95.846c.449 1.293 1.76 2.725 4.416 2.725 2.726 0 4.52-1.432 4.52-4.192v-8.055h-2.139Zm-2.346 6.658c-1.346 0-2.346-.966-2.346-2.518 0-1.553 1-2.519 2.346-2.519 1.345 0 2.346.966 2.346 2.519 0 1.552-1 2.518-2.346 2.518ZM67.841 20.722c0 2.794 1.932 4.52 4.485 4.52 2.553 0 4.485-1.726 4.485-4.52 0-2.795-1.932-4.52-4.485-4.52-2.553 0-4.485 1.725-4.485 4.52Zm2.174 0c0-1.656.966-2.622 2.311-2.622 1.346 0 2.312.966 2.312 2.622s-.966 2.622-2.312 2.622c-1.345 0-2.311-.966-2.311-2.622ZM78.517 13.96c0 .88.673 1.484 1.536 1.484.862 0 1.535-.604 1.535-1.484s-.673-1.483-1.535-1.483c-.863 0-1.536.603-1.536 1.483Zm2.622 2.484h-2.173V25h2.173v-8.556ZM83.076 28.45h2.174v-4.554h.172c.483.69 1.311 1.345 2.795 1.345 2.035 0 3.864-1.725 3.864-4.52 0-2.794-1.829-4.519-3.864-4.519-1.484 0-2.312.656-2.829 1.397h-.173v-1.155h-2.139V28.45Zm4.485-5.072c-1.345 0-2.346-.966-2.346-2.656 0-1.69 1.001-2.657 2.346-2.657 1.346 0 2.346.966 2.346 2.657 0 1.69-1 2.656-2.346 2.656ZM93.349 18.841c0 1.69 1.414 2.312 3.208 2.657l.449.086c1.069.207 1.552.466 1.552 1.018s-.483.983-1.483.983c-1.001 0-1.811-.414-2.036-1.656l-2.001.518c.294 1.794 1.794 2.794 4.037 2.794 2.173 0 3.588-1.018 3.588-2.812 0-1.794-1.449-2.277-3.381-2.656l-.449-.086c-.897-.173-1.38-.414-1.38-.984 0-.517.449-.845 1.277-.845.828 0 1.414.345 1.621 1.277l1.967-.604c-.414-1.38-1.673-2.329-3.588-2.329-2.036 0-3.381.949-3.381 2.64ZM110.426 25v-8.556h-2.173v4.416c0 1.587-.776 2.519-2.105 2.519-1.173 0-1.828-.638-1.828-1.932v-5.003h-2.174v5.106c0 2.122 1.329 3.588 3.33 3.588 1.569 0 2.294-.69 2.639-1.414h.172V25h2.139ZM112.354 16.444V25h2.174v-5.106c0-1.173.552-1.829 1.552-1.829.863 0 1.38.483 1.38 1.415V25h2.174v-5.106c0-1.173.552-1.829 1.552-1.829.863 0 1.38.483 1.38 1.415V25h2.174v-5.624c0-2.07-1.277-3.07-2.864-3.07-1.397 0-2.035.62-2.449 1.345h-.173c-.397-.81-1.104-1.345-2.346-1.345s-1.915.552-2.242 1.207h-.173v-1.07h-2.139Z" fill="#fff"/></svg>