<svg width="25" height="13" fill="none" xmlns="http://www.w3.org/2000/svg"><path d="M21.413 7.436H.187C.05 7.436 0 7.41 0 7.24c.013-.494.013-1.001 0-1.495 0-.143.037-.182.175-.182H21.4c.025-.065-.037-.091-.063-.117-1.25-1.313-2.512-2.613-3.774-3.913-.113-.117-.125-.17-.013-.3.375-.376.738-.766 1.113-1.143.075-.078.112-.091.187 0l6.075 6.318c.075.078.075.117 0 .195-2.025 2.093-4.038 4.199-6.063 6.305-.087.09-.124.09-.2 0-.362-.39-.737-.78-1.112-1.157-.1-.104-.1-.156 0-.26 1.262-1.3 2.512-2.613 3.775-3.913.038-.052.075-.065.088-.143Z" fill="#383431"/></svg>