<svg width="115" height="26" fill="none" xmlns="http://www.w3.org/2000/svg"><path d="M.941 25.825h25.65V.175H.941v25.65Zm20.713-15.293h-5.42v-5.42h5.42v5.42ZM5.877 5.112H11.3v10.356h10.354v5.42H5.877V5.112ZM43.294.175A12.825 12.825 0 1 0 56.119 13 12.84 12.84 0 0 0 43.294.175Zm0 20.713A7.888 7.888 0 1 1 51.182 13a7.9 7.9 0 0 1-7.888 7.888ZM102.013.175A12.824 12.824 0 1 0 114.837 13 12.84 12.84 0 0 0 102.013.175Zm0 20.713a7.89 7.89 0 0 1-1.54-15.625 7.886 7.886 0 0 1 7.113 13.31 7.898 7.898 0 0 1-5.573 2.315ZM72.653.175A12.825 12.825 0 1 0 85.478 13 12.84 12.84 0 0 0 72.653.175Zm0 20.713a7.888 7.888 0 1 1 7.488-10.356h-7.488v4.936h7.488a7.9 7.9 0 0 1-7.488 5.42Z" fill="#fff"/></svg>